<svg width="36" height="36" viewBox="0 0 36 36" fill="none" xmlns="http://www.w3.org/2000/svg">
    <circle cx="18" cy="18" r="17" stroke="#BF995A" stroke-width="0.708333"/>
    <path d="M21.7832 10.2115L19.784 10.2083C17.5381 10.2083 16.0867 11.7 16.0867 14.0087V15.761H14.0767C13.903 15.761 13.7624 15.902 13.7624 16.076V18.6148C13.7624 18.7888 13.9032 18.9297 14.0767 18.9297H16.0867V25.3359C16.0867 25.5099 16.2274 25.6508 16.401 25.6508H19.0235C19.1972 25.6508 19.3379 25.5097 19.3379 25.3359V18.9297H21.688C21.8617 18.9297 22.0024 18.7888 22.0024 18.6148L22.0034 16.076C22.0034 15.9925 21.9702 15.9125 21.9113 15.8533C21.8524 15.7942 21.7722 15.761 21.6889 15.761H19.3379V14.2756C19.3379 13.5616 19.5077 13.1992 20.4361 13.1992L21.7828 13.1987C21.9564 13.1987 22.097 13.0577 22.097 12.8838V10.5264C22.097 10.3527 21.9565 10.2118 21.7832 10.2115Z" fill="#BF995A"/>
</svg>