<svg width="130" height="123" viewBox="0 0 130 123" fill="none" xmlns="http://www.w3.org/2000/svg">
    <path fill-rule="evenodd" clip-rule="evenodd" d="M62.6795 3.3881C62.5119 3.06122 62.156 2.36693 61.8121 1.64876C61.3627 0.749435 60.9133 0 60.8009 0C60.6699 0 60.0519 1.03048 59.4153 2.28578C58.7786 3.55982 58.1794 4.60903 58.0858 4.6465C57.7487 4.77765 57.936 5.45214 58.8535 7.21332C59.7149 8.88081 60.0145 9.98623 59.6587 10.1549C59.5651 10.1736 59.3778 10.5108 59.2093 10.8668C58.8348 11.6912 58.2356 12.8903 56.4567 16.3002C54.4343 20.1973 54.1722 20.7406 54.1722 20.9467C54.1722 21.0404 54.0411 21.2278 53.8913 21.3589C53.7415 21.4901 53.6104 21.7336 53.6104 21.9023C53.6104 22.0896 53.4232 22.4081 53.1798 22.6329C52.7491 23.0451 52.7303 23.0451 52.412 22.6892C52.2435 22.5018 51.7005 21.7898 51.2136 21.1153C49.5658 18.8296 45.9144 14.2393 45.7271 14.2393C45.596 14.2393 45.5024 14.4641 45.5773 14.6515C45.5773 14.6889 45.4649 15.0449 45.3151 15.4571C45.1653 15.8693 44.8283 16.9185 44.5661 17.7991C44.4676 18.108 44.3368 18.5275 44.19 18.9986L44.1899 18.9987C43.9181 19.8708 43.5911 20.9196 43.3115 21.7711C42.8996 23.0826 42.5625 24.263 42.5625 24.3941C42.5625 24.8625 41.9446 26.2302 41.7199 26.2302C41.6075 26.2302 41.2892 25.9867 41.0458 25.7056L40.7065 25.3133C40.3752 24.9301 39.9015 24.3822 39.4729 23.8883C38.8549 23.1576 38.0123 22.202 37.5816 21.7336C37.1509 21.2652 36.3083 20.291 35.7091 19.579C35.1099 18.8483 34.4545 18.0989 34.286 17.9115C33.9489 17.5555 33.9489 17.5555 33.9489 17.949C33.9489 18.1738 34.0238 18.3612 34.1362 18.3612C34.2298 18.3612 34.3796 18.6984 34.4358 19.1106C34.5107 19.5228 34.6417 19.9163 34.7166 19.9725C34.8103 20.0287 34.8852 20.3097 34.8852 20.5907C34.8852 20.8718 35.0162 21.2652 35.166 21.4713C35.3158 21.6587 35.4469 22.0521 35.4469 22.3332C35.4469 22.6142 35.5218 22.8765 35.6155 22.9327C35.7091 22.9889 35.8402 23.3449 35.9151 23.7196C35.9712 24.0944 36.1023 24.544 36.1959 24.7126C36.2708 24.8813 36.4768 25.5183 36.6453 26.1366C36.8326 26.7549 37.0386 27.4293 37.1135 27.6354C37.2071 27.8415 37.4131 28.516 37.5816 29.1343C37.7689 29.7526 37.9748 30.4271 38.0685 30.6332C38.1621 30.8393 38.4804 31.8135 38.7988 32.8065C39.3231 34.4178 39.3792 34.8675 39.3792 36.9097V39.1955L37.4505 41.0878C34.1362 44.3478 23.3879 54.8774 20.7289 57.4255C19.3619 58.7745 18.2197 59.9923 18.2197 60.1235C18.2197 60.2733 24.5675 66.6998 32.3198 74.4002C36.042 78.1155 40.1763 82.2344 43.8959 85.9402L43.9142 85.9585L43.9186 85.9628L43.9475 85.9916C47.9347 89.964 51.44 93.4563 53.4419 95.4593C57.318 99.3189 60.595 102.485 60.7073 102.485C60.8384 102.485 63.4787 99.9747 66.5683 96.902C67.6251 95.8575 68.6271 94.8655 69.4934 94.0079L69.4995 94.0019L69.5022 93.9992L69.5078 93.9936L69.5102 93.9913L69.5167 93.9848C71.1708 92.3473 72.3248 91.205 72.4106 91.1313C72.5229 91.0189 72.8787 90.6442 73.1971 90.2882C73.5154 89.9323 80.4063 83.0562 88.5143 75.0185C96.6036 66.9621 103.232 60.2546 103.232 60.1235C103.232 59.9923 102.483 59.1492 101.566 58.2686C101.016 57.741 99.3906 56.1505 97.338 54.1421L97.334 54.1381L97.3321 54.1363C95.9606 52.7942 94.3987 51.266 92.8399 49.7438C88.9637 45.9217 84.9565 41.9871 83.9266 40.9941L82.0728 39.1767V36.8722C82.0728 35.186 82.1477 34.4178 82.3537 34.0244C82.5035 33.7433 82.6346 33.3686 82.6346 33.2187C82.6346 33.0688 83.0653 31.6262 83.5896 30.0149C84.1139 28.4036 84.7505 26.3614 85.0127 25.4808C85.2749 24.6002 85.6119 23.6634 85.743 23.3824C85.8928 23.1201 86.0051 22.7079 86.0051 22.5018C86.0051 22.277 86.08 21.9585 86.1737 21.7711C86.2673 21.6025 86.492 20.9467 86.6793 20.3284C86.8665 19.7102 87.0912 19.1293 87.1661 19.0169C87.241 18.9233 87.3159 18.6422 87.3159 18.3612C87.3159 17.8928 87.2972 17.8928 86.698 18.5673C86.4581 18.8496 86.0057 19.366 85.5729 19.8598L85.5724 19.8604C85.4309 20.0218 85.2916 20.1808 85.1625 20.3284C83.5896 22.1646 81.8107 24.2068 80.8932 25.1998C80.1629 25.9867 79.9943 26.0991 79.6947 25.9305C79.5075 25.8181 79.339 25.5558 79.3015 25.3684C79.2453 24.9937 78.7585 23.2325 78.515 22.5767C78.384 22.202 77.8597 20.4783 77.5226 19.298C77.429 18.942 77.2792 18.4923 77.1855 18.3237C77.0919 18.1363 76.9421 17.6867 76.8485 17.2932C76.2118 14.7826 75.9497 14.1456 75.5939 14.3892C75.5003 14.4641 74.9947 15.0637 74.4891 15.7381C73.9835 16.4126 73.4779 17.0497 73.3656 17.1621C73.272 17.2745 72.8787 17.7616 72.523 18.2488C72.1672 18.7172 71.6429 19.3916 71.362 19.7289C71.0811 20.0661 70.8377 20.4409 70.8377 20.5533C70.8377 20.6844 70.7628 20.7968 70.6692 20.7968C70.5755 20.7968 70.3134 21.0779 70.1074 21.4339C69.6767 22.1271 68.8154 23.0451 68.5719 23.0451C68.4221 23.0451 68.2536 22.7454 67.3922 20.9842C67.3198 20.8393 67.2462 20.6907 67.1748 20.5467L67.1748 20.5466L67.1742 20.5454L67.1738 20.5446L67.1735 20.5439L67.1731 20.5431C66.9683 20.1298 66.7825 19.7551 66.6994 19.6165C65.6133 17.6305 62.9731 12.3095 62.9731 12.1034C62.9731 11.9535 62.8982 11.8036 62.8233 11.7661C62.7484 11.7287 62.4113 11.1853 62.093 10.5483L61.5125 9.38668L62.5424 7.28826L63.5723 5.1711L63.2539 4.51535C63.0854 4.14063 62.8607 3.70971 62.7671 3.55982C62.752 3.52963 62.7217 3.47055 62.6795 3.3881ZM51.8503 14.9512C52.2435 15.5133 52.4495 15.4758 52.7865 14.7451C53.0674 14.1643 53.0674 14.0894 52.7116 13.5086L52.3371 12.909L51.9439 13.4524C51.4758 14.1269 51.457 14.3892 51.8503 14.9512ZM69.5269 13.4149C69.8827 13.8271 69.8265 14.7451 69.4333 15.1761L69.0775 15.5695L68.7404 14.895C68.4034 14.258 68.4034 14.2018 68.7217 13.6772C69.0962 13.0402 69.2086 13.0027 69.5269 13.4149ZM40.6151 19.2418C40.896 18.6609 40.896 18.5673 40.6151 18.0239C40.2219 17.2558 40.0159 17.2745 39.6414 18.0427C39.3605 18.6235 39.3605 18.7171 39.6414 19.2605C40.0346 20.0287 40.2406 20.0099 40.6151 19.2418ZM82.0728 18.6235C82.0541 19.1293 81.4736 19.8975 81.2302 19.7102C81.0055 19.5415 80.5748 18.8108 80.5748 18.5673C80.5748 18.4923 80.7621 18.1738 80.9868 17.8928L81.3987 17.3682L81.7358 17.7991C81.923 18.0239 82.0728 18.3986 82.0728 18.6235ZM59.6025 5.33973C59.6025 4.87133 59.9958 3.9158 60.389 3.40993C60.5013 3.29752 60.6886 3.1851 60.8009 3.1851C61.0069 3.1851 61.8496 4.85259 61.8496 5.22731C61.8496 5.67697 61.0069 7.307 60.7822 7.307C60.4452 7.307 59.6025 5.9018 59.6025 5.33973ZM60.5013 11.6725C60.3515 11.8036 60.0707 12.272 59.8834 12.7404C59.6774 13.2088 59.4714 13.621 59.4153 13.6772C59.1906 13.8646 55.2957 21.7898 55.2957 22.0334C55.2957 22.1833 55.2208 22.2957 55.1459 22.2957C55.0523 22.2957 54.7527 22.8016 54.4531 23.4199C54.0786 24.2068 53.9849 24.6002 54.116 24.7688C54.2096 24.9 55.5204 26.6612 57.0184 28.6659C58.5165 30.6706 59.977 32.563 60.2579 32.8627L60.7822 33.4248L61.4563 32.6566C61.8308 32.2445 62.2802 31.7011 62.4675 31.4576C65.5384 27.3169 67.0365 25.3497 67.2237 25.1436C67.3548 25.0124 67.4671 24.7314 67.4671 24.544C67.4671 24.2817 63.8157 16.881 61.344 12.1409C61.0069 11.4851 60.8384 11.3914 60.5013 11.6725ZM45.7458 18.5673C45.7458 18.4361 45.8956 18.1363 46.0829 17.8928C46.5136 17.2932 46.7008 17.312 47.2064 18.0427C47.4311 18.3612 48.5921 19.935 49.7718 21.5088C50.9514 23.0826 51.9252 24.544 51.9252 24.7501C51.9252 25.2747 48.1427 32.9377 47.8056 33.0688C47.6558 33.1438 47.3187 32.9377 46.963 32.5442C43.4426 28.5722 43.1243 28.16 43.1243 27.6167C43.1243 27.3919 43.3677 26.4551 43.6673 25.537C43.927 24.7575 44.2429 23.7106 44.4445 23.0429L44.4446 23.0423L44.4447 23.0422L44.5287 22.7641C44.6972 22.1458 44.9032 21.4713 44.9968 21.2652C45.2402 20.6282 45.7458 18.8108 45.7458 18.5673ZM74.7325 17.6867C74.5453 17.8178 74.3955 18.0239 74.3955 18.1363C74.3955 18.2488 74.3393 18.3612 74.2644 18.3986C74.1708 18.4174 73.7401 18.9607 73.272 19.579C72.8226 20.1973 72.2234 20.9655 71.9612 21.284C71.699 21.6025 71.362 22.0521 71.2122 22.2957C71.0624 22.5205 70.613 23.1201 70.2385 23.6072C69.8452 24.0944 69.5269 24.6564 69.5269 24.8625C69.5269 25.0499 69.9389 26.0241 70.4445 26.9797C70.95 27.9539 71.7927 29.6027 72.2982 30.6332C72.8226 31.6636 73.3843 32.6754 73.5341 32.8815L73.5487 32.9004C73.6192 32.992 73.6732 33.0621 73.7426 33.0846C73.9701 33.1581 74.363 32.7194 76.0428 30.8441L76.0808 30.8018C78.6274 27.9352 78.8146 27.5792 78.2342 26.4925C78.0844 26.1928 77.9533 25.7993 77.9533 25.612C77.9533 25.4433 77.8784 25.1436 77.7848 24.9562C77.6911 24.7876 77.4664 24.1318 77.2979 23.5135C77.1106 22.8953 76.7736 21.7898 76.5489 21.0779C76.3055 20.3472 75.9684 19.2418 75.7812 18.6047C75.4066 17.3869 75.2756 17.2745 74.7325 17.6867ZM82.0289 26.109C82.246 25.8699 82.466 25.6277 82.6533 25.4246C83.4398 24.544 83.4585 24.5253 83.6083 24.9375C83.7207 25.2372 83.6832 25.612 83.4585 26.1366C83.29 26.5487 83.084 27.0546 83.0091 27.2607C82.5035 28.6659 82.3912 29.0032 82.3163 29.509C82.2601 29.8088 82.1477 30.146 82.0728 30.2585C81.9979 30.3521 81.8856 30.6706 81.8107 30.9517C81.7545 31.2515 81.6234 31.4763 81.5298 31.4763C81.3051 31.4763 80.7621 30.6144 80.7621 30.221C80.7433 30.0336 80.631 29.5465 80.4812 29.153C80.1816 28.3099 80.2752 28.0289 81.2302 26.9797C81.4267 26.7721 81.7251 26.4435 82.0289 26.109ZM37.9374 25.537C37.9936 25.9867 38.1808 26.5862 38.3306 26.886C38.4991 27.2045 38.6302 27.5792 38.6302 27.7291C38.6302 27.879 38.8175 28.4785 39.0235 29.0406C39.2482 29.6027 39.4541 30.2959 39.5103 30.577C39.6227 31.1578 39.9597 31.5138 40.2406 31.3264C40.3529 31.2515 40.6151 30.6519 40.8585 30.0149C41.3267 28.7221 41.2705 28.1226 40.69 27.4668C38.8924 25.4621 38.1808 24.7314 38.0123 24.7314C37.8999 24.7314 37.8812 25.0499 37.9374 25.537ZM52.2809 27.6354C52.5244 27.1108 52.8053 26.5862 52.9176 26.4551C53.1798 26.1366 53.3108 26.2115 53.9288 27.0171C54.0811 27.2204 54.3711 27.5944 54.7032 28.0228L54.7043 28.0241L54.7059 28.0261L54.7071 28.0277L54.7076 28.0283L54.7084 28.0294C54.9873 28.3891 55.2955 28.7866 55.5766 29.153C56.1945 29.9399 56.7937 30.7269 56.8874 30.8955C56.9997 31.0641 57.3742 31.5325 57.7487 31.9634C58.5726 32.8815 58.9097 33.481 58.7599 33.7246C58.6101 33.9494 49.5471 33.9869 49.416 33.7433C49.3598 33.6684 49.4909 33.2749 49.6781 32.8627C49.8841 32.4693 50.0526 32.0384 50.0526 31.9259C50.0526 31.7948 50.1088 31.6636 50.2024 31.6262C50.3522 31.5512 51.5507 29.1343 51.5507 28.872C51.5507 28.7783 51.6068 28.6659 51.7005 28.6284C51.7754 28.591 52.0375 28.1413 52.2809 27.6354ZM68.1787 26.5675C68.0102 26.6424 67.2424 27.5043 66.4934 28.4973C65.7444 29.4903 64.9018 30.577 64.6209 30.9329C63.1416 32.7691 62.5986 33.556 62.6922 33.7246C62.7671 33.837 64.6396 33.912 67.4859 33.912C71.4182 33.912 72.1484 33.8745 72.1484 33.6497C72.1484 33.4998 72.0735 33.3124 71.9612 33.2562C71.8676 33.2 71.7739 32.9752 71.7739 32.7691C71.7739 32.5817 71.699 32.4131 71.5867 32.4131C71.4931 32.4131 71.3994 32.207 71.3994 31.9447C71.3994 31.7011 71.2871 31.4201 71.1747 31.3451C71.0437 31.2702 70.3883 30.1273 69.7329 28.7971C69.0775 27.4855 68.5345 26.4176 68.5157 26.4363C68.5157 26.4363 68.3472 26.4925 68.1787 26.5675ZM75.6126 33.5934C75.6126 33.4061 77.0545 31.7011 78.5712 30.1273C78.9832 29.6776 79.4513 29.9587 79.4513 30.6519C79.4513 30.9142 79.5262 31.2515 79.6198 31.4388C79.7135 31.6074 79.9194 32.1695 80.088 32.6941C80.2939 33.4061 80.3127 33.6497 80.1441 33.7621C79.7696 34.0056 75.6126 33.8557 75.6126 33.5934ZM42.2255 30.4833C41.645 32.0196 41.2518 33.4436 41.3267 33.6497C41.4577 33.9682 45.6522 34.0244 45.8395 33.7246C45.9144 33.6122 45.7833 33.3311 45.5773 33.1063C45.3713 32.8815 44.9968 32.4693 44.7721 32.207C43.4613 30.7456 42.7311 29.9774 42.5813 29.9774C42.4876 29.9774 42.3378 30.2022 42.2255 30.4833ZM41.0458 37.5655C40.8585 37.3781 40.8211 36.1603 40.9896 35.7106C41.0832 35.4483 43.1617 35.4296 60.595 35.4296C75.725 35.4108 80.1816 35.467 80.4063 35.6544C80.631 35.823 80.6872 36.0666 80.5935 36.7223L80.4812 37.5655L60.8571 37.6591C48.5733 37.7153 41.1581 37.6779 41.0458 37.5655ZM40.5402 41.2564C40.3717 41.3126 37.7876 43.7858 34.7915 46.7273C30.6533 50.8117 29.4174 52.1232 29.5859 52.2919C29.7544 52.4605 30.1102 52.2919 31.0839 51.5986C31.7768 51.0928 32.376 50.6993 32.3947 50.718C32.4322 50.7555 35.4469 48.8257 35.7278 48.5822C35.8402 48.4885 36.0649 48.3573 36.2521 48.2824C36.4206 48.2262 36.5704 48.0763 36.5704 47.9639C36.5704 47.8702 36.7015 47.7765 36.8513 47.7765C37.076 47.7765 39.2107 46.4463 39.5665 46.0903C39.7163 45.9404 40.3342 45.5657 41.0083 45.2284C41.3454 45.0598 41.7012 44.8162 41.8322 44.6664C41.9446 44.5165 42.1693 44.404 42.3004 44.404C42.4502 44.404 42.5625 44.3478 42.5625 44.2542C42.5625 44.1792 42.8809 43.9544 43.2741 43.7483C43.6486 43.5422 44.0044 43.3361 44.0605 43.2612C44.1167 43.205 44.6785 42.849 45.3339 42.4555C46.4761 41.7623 46.7195 41.4625 46.2701 41.3126C45.8582 41.1815 40.8585 41.1253 40.5402 41.2564ZM55.82 42.3806C55.0897 41.856 54.9774 41.6124 55.277 41.2939C55.5017 41.0878 65.9878 41.1627 66.2313 41.4063C66.3062 41.4813 66.3249 41.6499 66.25 41.7623C66.0253 42.1557 60.9133 45.9029 60.6324 45.9029C60.4639 45.9029 60.2392 45.8092 60.1081 45.7156C59.977 45.6031 59.3404 45.0973 58.6663 44.5727C58.1986 44.2087 57.6949 43.8088 57.3428 43.5291L57.3423 43.5287L57.338 43.5253C57.1847 43.4035 57.0605 43.3049 56.981 43.2424C56.7188 43.0551 56.1945 42.6616 55.82 42.3806ZM75.5377 41.2002C75.2756 41.2564 75.0509 41.425 75.0134 41.5375C74.9385 41.7436 77.7848 43.7296 78.515 43.9919C78.6648 44.0481 78.8334 44.1605 78.8895 44.2167C79.0393 44.4415 81.4924 45.9029 81.6983 45.9029C81.8107 45.9029 81.8856 45.9779 81.8856 46.0903C81.8856 46.184 81.9979 46.2776 82.1477 46.2776C82.2975 46.2776 82.4473 46.3526 82.4848 46.4463C82.5222 46.5212 83.3087 47.0645 84.2262 47.6454C86.3609 48.9569 89.0199 50.6993 89.3195 50.9429C89.4506 51.0553 89.6378 51.149 89.7502 51.149C89.8625 51.149 90.2371 51.3551 90.5554 51.5986C90.8924 51.8609 91.4167 52.1045 91.7163 52.1794C92.1658 52.2731 91.1171 51.149 86.6605 46.7648L81.0429 41.2189H78.8895C77.7098 41.2189 76.5676 41.1815 76.3616 41.144C76.1557 41.0878 75.7812 41.1253 75.5377 41.2002ZM50.9889 43.842C50.9889 43.6359 51.1387 43.1862 51.3072 42.8115C51.4758 42.4555 51.7192 42.1557 51.8503 42.1557C51.9813 42.1557 52.5993 42.5492 53.2172 43.0363C53.793 43.5077 55.0354 44.4671 56.0657 45.2627L56.2881 45.4345C58.5726 47.177 58.7786 47.4205 58.3292 47.8515C57.8236 48.3386 55.7077 50.0248 54.1722 51.149C53.4045 51.711 52.5618 52.3668 52.2997 52.6104C52.0375 52.8539 51.6068 53.1912 51.326 53.3598C51.0264 53.5284 50.8016 53.7345 50.8016 53.8095C50.8016 53.8844 50.708 53.9594 50.6144 53.9594C50.4084 53.9594 50.2212 54.0905 49.3223 54.8961C49.0227 55.1584 48.6295 55.477 48.4423 55.6081C47.2064 56.4138 46.963 56.5636 46.8881 56.4887C46.7757 56.3575 47.2813 54.3341 47.4685 54.2217C47.5434 54.1654 47.6183 53.9406 47.6183 53.697C47.6183 53.4722 47.7494 53.1162 47.8992 52.9101C48.049 52.7228 48.1801 52.4043 48.1801 52.2169C48.1801 52.0483 48.255 51.7485 48.3486 51.5612C48.4423 51.3925 48.6857 50.6993 48.8917 50.0248C49.8467 47.0833 50.2399 45.9217 50.6893 44.9099C50.8578 44.5165 50.9889 44.0481 50.9889 43.842ZM68.909 42.5305C68.6468 42.7366 68.3847 42.9052 68.3285 42.9052C68.2723 42.9052 68.0289 43.0738 67.8042 43.2612C66.7743 44.1417 66.4934 44.3666 65.2201 45.3408C63.0667 46.9896 62.7484 47.2894 62.8794 47.5891C62.9356 47.739 63.5348 48.2824 64.2089 48.807C64.883 49.3129 66.0815 50.2496 66.8679 50.8679L67.1353 51.0733L67.1355 51.0734L67.1357 51.0736L67.1368 51.0745C67.9115 51.6697 68.8814 52.4149 69.4333 52.8165C70.0512 53.2849 70.5943 53.697 70.6504 53.7533C70.95 54.0905 72.7102 55.4582 72.86 55.4582C72.9349 55.4582 73.2158 55.6643 73.4592 55.9266C74.2082 56.7323 74.8823 56.4325 74.4142 55.4957C74.3206 55.3271 74.1146 54.7088 73.9274 54.1467C73.7588 53.5846 73.5341 52.9476 73.4592 52.7415C73.2345 52.2356 72.3919 49.7812 72.0361 48.6196C71.8676 48.095 71.6616 47.5329 71.568 47.3643C71.4743 47.177 71.3994 46.8959 71.3994 46.7273C71.3994 46.5587 71.2871 46.2027 71.1373 45.9404C70.9875 45.6594 70.7628 45.0598 70.6317 44.5914C70.2946 43.411 69.7329 42.1557 69.5456 42.1557C69.452 42.1557 69.1711 42.3244 68.909 42.5305ZM46.6821 44.2167C47.2438 43.8607 47.7494 43.5047 47.7682 43.4298C47.8056 43.3361 48.049 43.2799 48.2925 43.2799C48.6482 43.2799 48.7419 43.3736 48.7419 43.7296C48.7419 43.9919 48.667 44.2542 48.5546 44.3104C48.461 44.3666 48.3674 44.6664 48.3674 44.9474C48.3674 45.2472 48.2363 45.5844 48.0865 45.7156C47.9367 45.8467 47.8056 46.109 47.8056 46.2964C47.8056 46.5025 47.7307 46.8022 47.6371 46.9896C47.5434 47.1582 47.2064 48.1512 46.8693 49.1817C46.5323 50.2122 46.1952 51.1302 46.1016 51.2239C46.008 51.3363 45.9331 51.6174 45.9331 51.8797C45.9331 52.1607 45.7271 52.779 45.4649 53.3036C45.2215 53.8095 44.9968 54.4652 44.9968 54.7463C44.9968 55.0273 44.9219 55.3083 44.8096 55.3645C44.7159 55.4207 44.6223 55.6268 44.6223 55.7955C44.6223 55.9641 44.4912 56.3575 44.3414 56.6573C44.1916 56.9384 44.0605 57.3131 44.0605 57.463C44.0605 57.5941 43.892 58.0625 43.686 58.456L43.3115 59.2054H33.7617C28.5186 59.2054 24.193 59.1492 24.1369 59.0555C23.9871 58.8119 24.4739 58.381 26.0843 57.3318C26.6647 56.9611 27.2452 56.5822 27.6323 56.3296L27.6337 56.3286L27.634 56.3285L27.6377 56.326C27.8348 56.1974 27.981 56.102 28.0504 56.0578C28.2564 55.9266 28.5748 55.7767 28.762 55.7205C28.9305 55.6456 29.0803 55.5332 29.0803 55.4582C29.0803 55.3833 29.3612 55.1772 29.6983 55.0086C30.0166 54.8399 30.5596 54.5214 30.8592 54.3341C31.1776 54.128 31.5521 53.9031 31.7019 53.8282C31.8517 53.772 32.0202 53.6596 32.0764 53.5846C32.2075 53.416 34.1174 52.1794 34.8852 51.7673C35.241 51.5799 36.0087 51.0928 36.5704 50.6618C37.1322 50.2496 38.031 49.6688 38.5366 49.3691C39.0609 49.088 39.5103 48.7882 39.5665 48.7133C39.6227 48.6384 40.278 48.2074 41.0458 47.7578C41.3206 47.5928 41.5979 47.4253 41.8472 47.2747L41.8476 47.2745L41.8486 47.2739L41.8502 47.2729C42.2791 47.0139 42.6246 46.8052 42.7311 46.746C42.7918 46.7055 42.8817 46.648 42.9859 46.5813L42.986 46.5812L42.9865 46.5809L42.9866 46.5809L42.987 46.5806C43.1717 46.4624 43.4011 46.3155 43.5924 46.184C44.4538 45.6031 44.8845 45.3408 45.1841 45.2097C45.3339 45.1348 45.5024 45.0411 45.5586 44.9661C45.6147 44.9099 46.1203 44.5727 46.6821 44.2167ZM72.6166 43.4673C72.5604 43.5609 72.6353 43.8982 72.8038 44.198C72.9536 44.5165 73.0847 44.9099 73.0847 45.116C73.0847 45.3034 73.1596 45.5282 73.2345 45.6219C73.3094 45.7343 73.6277 46.5587 73.9086 47.4955C74.1895 48.4135 74.5453 49.4253 74.6764 49.7438C74.7887 50.0435 75.0509 50.8117 75.2381 51.43C75.4254 52.0483 75.6501 52.6291 75.7437 52.7228C75.8186 52.8352 75.8935 53.0975 75.8935 53.3223C75.8935 53.5659 75.9684 53.7907 76.062 53.8657C76.1557 53.9219 76.3055 54.2404 76.3804 54.5589C76.4365 54.8961 76.5676 55.2896 76.6425 55.4582C76.9047 55.9828 77.3915 57.6128 77.3915 57.9314C77.3915 58.1187 77.4664 58.2686 77.5601 58.2686C77.6537 58.2686 77.7848 58.4747 77.8409 58.737L77.9533 59.2054H87.2972C92.4466 59.2054 96.7722 59.1492 96.9407 59.093C97.4276 58.9056 97.2965 58.3248 96.7347 58.1C96.2479 57.9126 92.8773 55.8704 92.4654 55.5144C92.2032 55.2896 86.1924 51.4862 84.1701 50.2496C83.2713 49.7063 82.5222 49.1817 82.4848 49.088C82.4473 48.9756 82.335 48.9007 82.2414 48.9007C82.0354 48.9007 79.0019 46.9896 78.927 46.8022C78.8895 46.7086 78.7772 46.6524 78.6836 46.6524C78.4589 46.6524 76.0059 45.116 75.9309 44.9287C75.8935 44.8537 75.7812 44.7788 75.6875 44.7788C75.5939 44.7788 75.0134 44.4415 74.4142 44.0293C73.3094 43.2799 72.8226 43.13 72.6166 43.4673ZM59.2467 50.0248C59.5838 49.7625 59.9396 49.4627 60.0519 49.3316C60.4077 48.9381 61.0069 49.0693 61.7747 49.7063C63.0105 50.7555 69.7891 55.9641 71.1373 56.9384C71.4931 57.1819 71.7739 57.463 71.7739 57.5379C71.7739 57.6316 71.8863 57.7065 72.0174 57.7065C72.4106 57.7065 73.1409 58.5871 73.0285 58.9244C72.9162 59.1679 71.6054 59.2054 60.6137 59.1679C48.049 59.1117 47.6745 59.093 48.461 58.4185C48.6295 58.2873 48.9104 58.0438 49.0789 57.8751C49.2474 57.7253 49.6969 57.388 50.0526 57.1445C50.4084 56.8821 51.2511 56.2451 51.9252 55.6831C52.4682 55.2454 52.9868 54.8321 53.217 54.6486L53.2188 54.6472L53.2214 54.6451L53.3296 54.5589C54.0037 54.0905 55.9885 52.5729 57.2057 51.6174C57.862 51.1014 58.6096 50.5201 59.035 50.1895L59.0362 50.1886L59.2467 50.0248ZM46.2889 61.3413C46.0454 61.6036 46.0829 61.9596 46.4199 62.7277C46.4582 62.817 46.4993 62.912 46.5411 63.0086C46.6836 63.3381 46.8344 63.6866 46.9068 63.8894C46.9497 63.9895 47.0062 64.117 47.0671 64.2541L47.0687 64.2577L47.0689 64.2582L47.069 64.2584C47.1669 64.4791 47.2757 64.7242 47.3562 64.9198C47.4049 65.0497 47.4992 65.2815 47.6133 65.5619L47.6135 65.5622L47.6135 65.5623C47.7628 65.9293 47.9461 66.3794 48.1052 66.7934C48.2234 67.0929 48.3514 67.4255 48.4713 67.7369L48.4716 67.7375L48.4717 67.7377L48.4719 67.7384C48.6368 68.1667 48.7863 68.5547 48.8729 68.7607C48.9156 68.8621 48.9643 68.9756 49.0144 69.0922C49.1401 69.385 49.2741 69.6973 49.3411 69.8849C49.4534 70.1472 49.6407 70.5968 49.7718 70.9153C50.5208 72.6765 50.9889 73.8569 50.9889 74.0068C50.9889 74.1004 51.1949 74.625 51.4383 75.1684C51.6817 75.7117 52.0188 76.5361 52.206 77.0045C52.3933 77.4729 52.7303 78.2973 52.9738 78.8406C53.2172 79.3839 53.4232 79.8898 53.4232 79.9648C53.4232 80.0772 54.1909 82.007 54.7714 83.3747C54.8838 83.637 55.0336 84.0117 55.1085 84.2178C55.1834 84.4239 55.3332 84.7986 55.4455 85.0609C55.5579 85.3232 55.8387 85.9977 56.0447 86.5598C56.2507 87.1219 56.5316 87.7964 56.6439 88.0587C56.6999 88.1894 56.7699 88.3575 56.8399 88.5256L56.8405 88.527C56.9108 88.6957 56.981 88.8643 57.0372 88.9955C57.4117 89.951 57.524 90.232 57.8985 91.0939C58.1232 91.581 58.2918 92.0681 58.2918 92.1806C58.2918 92.2742 58.3667 92.5178 58.4603 92.7052C58.5539 92.8738 58.7224 93.2672 58.8535 93.5858C58.9621 93.8342 59.1222 94.2242 59.2485 94.5318L59.2486 94.532L59.3216 94.7099C59.409 94.9096 59.5461 95.259 59.6834 95.6085L59.6836 95.609L59.6836 95.6091C59.7523 95.784 59.821 95.9589 59.8834 96.1151C60.0519 96.5835 60.2579 97.0894 60.3515 97.2393C60.5201 97.5952 61.1005 97.7264 61.1005 97.3891C61.1005 97.258 61.2129 96.9395 61.344 96.6772C61.475 96.4149 61.7372 95.7778 61.9245 95.272C62.1117 94.7474 62.3739 94.0729 62.5049 93.7731L62.5783 93.5946L62.5784 93.5944L62.5787 93.5936C62.7048 93.2862 62.8646 92.897 62.9731 92.649C63.1041 92.3304 63.2727 91.937 63.3663 91.7684C63.4599 91.581 63.5348 91.3374 63.5348 91.1876C63.5348 91.0564 63.7034 90.6442 63.9093 90.2508C64.1153 89.876 64.2838 89.4639 64.2838 89.3702C64.2838 89.2578 64.4524 88.8081 64.6583 88.3959C64.8643 87.965 65.0328 87.5153 65.0328 87.4216C65.0328 87.3092 65.2388 86.7846 65.501 86.2788C65.7444 85.7542 65.9691 85.2295 65.9691 85.1171C65.9691 84.986 66.1938 84.4052 66.456 83.8056C67.1675 82.2131 67.205 82.1194 67.8416 80.377C68.16 79.4964 68.497 78.6158 68.5906 78.4097C69.2273 76.967 69.5082 76.2551 69.7329 75.5993C69.8827 75.1871 70.0325 74.8124 70.0887 74.7562C70.1636 74.7 70.3508 74.2316 70.5381 73.7257L70.5711 73.6331L70.5714 73.6324C70.7492 73.1339 70.9368 72.6081 71.0249 72.4142C71.7178 70.8404 71.9425 70.2596 72.1484 69.6038C72.2795 69.1916 72.4481 68.7794 72.5417 68.6858C72.6353 68.5733 72.7102 68.386 72.7102 68.2548C72.7102 68.1237 72.9162 67.5803 73.1596 67.037C74.0959 64.9386 75.1445 62.2031 75.1445 61.8284C75.1445 61.6223 75.0321 61.3975 74.9011 61.36C74.4329 61.1727 46.4761 61.1727 46.2889 61.3413ZM77.9346 61.36L88.1024 61.2663C93.7574 61.2101 98.3825 61.2476 98.5136 61.3413C98.626 61.435 98.7383 61.5661 98.7383 61.6223C98.7383 61.9408 64.8643 95.553 64.5647 95.553C64.3213 95.553 64.3587 95.0846 64.6583 94.3352C64.6872 94.2557 64.7384 94.126 64.8001 93.9698L64.8002 93.9696L64.8003 93.9692L64.8009 93.9678L64.8015 93.9662L64.8017 93.9657C64.8996 93.7176 65.0235 93.4035 65.1265 93.1174C65.1887 92.9616 65.2572 92.7872 65.3257 92.6128L65.3263 92.6114L65.3263 92.6112C65.4636 92.2615 65.6009 91.9119 65.6882 91.7122C65.8193 91.3936 66.1002 90.6442 66.3249 90.0259C66.5496 89.4076 66.8492 88.6395 66.999 88.3397C67.1301 88.0212 67.5608 86.972 67.9353 85.9977L67.9732 85.9038L67.9734 85.9032C68.3606 84.9437 68.8419 83.7513 69.0775 83.2435C69.3209 82.7002 69.5644 82.0444 69.6393 81.7821C69.6954 81.5198 69.8265 81.2575 69.9201 81.2013C70.0138 81.1451 70.0887 80.939 70.0887 80.7517C70.0887 80.5643 70.201 80.1709 70.3508 79.8711C70.8002 79.0092 71.2122 77.9975 71.2122 77.7727C71.2122 77.6602 71.2871 77.4167 71.3807 77.2293C71.6054 76.7797 72.1672 75.4494 72.8038 73.8194C73.1222 72.995 73.2345 72.714 74.0023 70.9715C74.227 70.4844 74.3955 69.9973 74.3955 69.9036C74.3955 69.7537 75.4066 67.2806 75.725 66.6623C75.8186 66.4749 75.8935 66.2501 75.8935 66.1377C75.8935 66.044 76.0995 65.5194 76.3429 64.9761C76.5863 64.4327 76.9234 63.6083 77.1106 63.1399C77.2792 62.6715 77.5413 62.0907 77.6724 61.8284L77.9346 61.36ZM22.7886 61.5286C22.695 61.7722 28.35 67.4492 51.7379 90.7192C54.4156 93.3797 56.7188 95.553 56.8686 95.553C57.0746 95.553 57.0933 95.4031 56.9623 94.8036C56.8686 94.3727 56.7188 93.9043 56.6252 93.7169C56.5566 93.5933 56.4477 93.3388 56.3428 93.0937L56.3428 93.0935L56.3426 93.0932C56.3045 93.0041 56.2669 92.9162 56.232 92.8363L56.1587 92.6579C56.0325 92.3504 55.8724 91.9605 55.7638 91.7122C55.6205 91.3535 55.4547 90.95 55.2818 90.5293L55.2807 90.5267L55.2799 90.5247C55.1373 90.1776 54.9899 89.8188 54.8463 89.4639C54.7152 89.1453 54.5092 88.6395 54.4156 88.3397C54.1909 87.7027 51.2698 80.3957 50.8953 79.5338C50.7642 79.2153 50.5395 78.6345 50.4084 78.2223C50.2773 77.8101 50.0901 77.3792 50.0152 77.2668C49.9403 77.1544 49.6594 76.4799 49.3785 75.7679C49.1164 75.056 48.7793 74.1941 48.6295 73.8569C47.8618 72.0957 47.1877 70.3907 46.5697 68.7045C46.4012 68.2174 46.1765 67.7677 46.1016 67.7115C46.008 67.6553 45.9331 67.4305 45.9331 67.1869C45.9331 66.9621 45.8582 66.6998 45.7645 66.5873C45.5773 66.4 45.0155 65.0323 44.3602 63.1961C44.2968 63.0155 44.247 62.8516 44.2018 62.7029C44.1012 62.372 44.0235 62.1165 43.8706 61.9193C43.3519 61.2503 41.9674 61.2527 35.8863 61.2633H35.8863C35.0412 61.2647 34.1055 61.2663 33.0688 61.2663C24.5488 61.2663 22.8823 61.3038 22.7886 61.5286ZM100.63 118.692C102.277 115.451 100.91 111.085 97.7646 109.549C95.9857 108.668 92.8773 108.631 91.061 109.455C90.2745 109.811 88.9825 110.823 88.4394 111.516C87.8589 112.265 87.1287 114.439 87.1287 115.451C87.1287 118.186 88.6829 120.715 91.061 121.839C91.7913 122.195 92.2219 122.252 94.2443 122.252C96.4351 122.252 96.6598 122.214 97.6148 121.727C98.9818 121.015 99.9367 120.06 100.63 118.692ZM72.1859 112.696C71.6429 111.385 70.5755 110.261 69.2086 109.567C68.3098 109.118 67.8791 109.024 66.2687 108.968C64.0591 108.874 63.3663 108.968 62.2241 109.586C61.3065 110.055 59.4153 111.797 59.4153 112.153C59.4153 112.284 59.3029 112.621 59.1531 112.921C59.0033 113.202 58.7973 113.952 58.685 114.57C58.2169 117.212 59.6212 120.378 61.7559 121.446C63.2727 122.233 63.4225 122.252 65.7631 122.252C67.9914 122.252 68.1787 122.214 69.0775 121.708C70.4819 120.94 71.7927 119.647 72.0548 118.767C72.1297 118.523 72.2608 118.223 72.3357 118.13C72.4106 118.017 72.5791 117.418 72.6915 116.762C72.9349 115.469 72.7664 114.139 72.1859 112.696ZM126.208 109.436C128.38 110.486 129.822 112.846 129.972 115.563C130.047 116.725 129.991 117.062 129.56 117.924C129.298 118.467 129.073 118.992 129.073 119.104C129.073 119.423 127.276 121.128 126.527 121.502C126.133 121.708 125.74 121.952 125.665 122.064C125.59 122.177 124.486 122.252 122.95 122.252C120.516 122.252 120.31 122.214 119.374 121.727C117.988 121.034 117.164 120.097 116.415 118.467C115.853 117.23 115.778 116.893 115.778 115.488C115.778 114.626 115.853 113.764 115.966 113.577C116.036 113.451 116.169 113.166 116.303 112.882C116.347 112.787 116.392 112.692 116.434 112.603C116.771 111.797 118.344 109.98 118.662 109.98C118.793 109.98 119.205 109.774 119.58 109.53C120.385 108.968 121.096 108.874 123.531 108.968C124.935 109.005 125.572 109.118 126.208 109.436ZM10.9168 110.916C10.8981 110.13 10.6547 109.774 9.84949 109.361C9.34391 109.08 8.55745 109.043 4.62514 109.043H0L0.505582 109.511L0.992439 109.961V115.675V121.39L0.505582 121.765L0 122.158H3.91358C7.30285 122.158 7.99569 122.102 9.02558 121.783C10.5985 121.277 11.1977 120.903 11.7595 120.06C12.5834 118.804 12.3587 117.193 11.1603 115.844C10.636 115.263 9.00685 114.289 8.55745 114.289C8.18294 114.289 8.05186 113.933 8.33274 113.671C8.46382 113.539 8.9694 113.183 9.47498 112.902C10.561 112.247 10.9168 111.778 10.9168 110.916ZM22.5265 109.324C22.152 109.792 22.5078 111.404 23.5564 114.008C23.6874 114.308 23.9683 115.151 24.2117 115.881L24.2117 115.881L24.2118 115.881C24.4365 116.593 24.7174 117.437 24.8484 117.755C24.9982 118.055 25.3353 118.954 25.6162 119.722C25.897 120.49 26.3464 121.352 26.6086 121.633L27.0955 122.158H24.6799C22.3767 122.158 22.3018 122.139 22.5827 121.821C23.3317 120.996 23.1257 119.46 22.0958 118.298C21.4592 117.568 19.6428 116.65 18.4818 116.462C17.5456 116.331 17.3209 116.537 16.8153 118.13C16.628 118.748 16.4033 119.329 16.3284 119.441C16.2535 119.535 16.1412 120.022 16.0663 120.49C15.9539 121.277 15.9727 121.39 16.4408 121.765L16.9651 122.158H15.0551H13.1451L13.8192 121.577C14.175 121.259 14.4746 120.884 14.4746 120.734C14.4746 120.584 14.5683 120.472 14.6619 120.472C14.7742 120.472 14.8491 120.303 14.8491 120.097C14.8491 119.891 14.924 119.572 15.0177 119.385C15.1113 119.216 15.336 118.692 15.5045 118.223C15.8229 117.399 16.3846 116.013 16.9838 114.626C17.1523 114.251 17.2834 113.858 17.2834 113.764C17.2834 113.652 17.583 112.884 17.9388 112.041C18.6316 110.429 18.744 109.642 18.3695 109.268C18.201 109.099 18.6504 109.043 20.448 109.043C22.4703 109.043 22.7325 109.08 22.5265 109.324ZM90.0872 115.357C90.0311 112.603 90.9673 110.785 92.6901 110.242C93.0833 110.111 93.5514 110.017 93.72 109.998C94.2817 109.961 95.9295 110.373 95.9295 110.56C95.9295 110.654 96.0232 110.729 96.1355 110.729C96.3977 110.729 97.259 111.76 97.6523 112.546C98.9069 115.095 98.7945 118.28 97.3901 119.985C96.7722 120.734 94.5626 121.615 94.1881 121.24C94.0757 121.128 93.7949 121.034 93.5702 121.034C92.765 121.034 91.5665 119.853 90.8175 118.336C90.1996 117.062 90.106 116.743 90.0872 115.357ZM64.2277 110.167C63.2727 110.448 62.4113 111.291 61.9245 112.359C61.5687 113.202 61.475 113.708 61.475 115.057C61.475 116.518 61.5499 116.856 62.093 118.074C63.1603 120.397 64.134 121.128 66.1938 121.109C67.3922 121.109 67.5046 121.071 68.3285 120.359C69.4707 119.385 69.9014 118.261 69.9014 116.237C69.9014 113.764 69.1337 112.041 67.3735 110.579C66.7181 110.036 65.295 109.849 64.2277 110.167ZM119.411 111.76C119.542 111.254 120.441 110.504 121.302 110.204C121.621 110.092 122.051 109.998 122.295 109.998C122.931 109.98 124.392 110.373 124.392 110.56C124.392 110.654 124.504 110.729 124.635 110.729C125.197 110.729 126.676 113.09 126.92 114.42C127.107 115.451 127.088 117.268 126.882 118.148C126.377 120.266 124.317 121.615 122.388 121.128C121.508 120.921 120.123 119.853 119.767 119.142C118.999 117.568 118.587 116.144 118.587 115.02C118.587 114.102 118.98 112.228 119.168 112.228C119.242 112.228 119.355 112.022 119.411 111.76ZM4.90602 109.923C3.98848 110.073 3.7076 110.598 3.65143 112.322C3.59525 114.308 3.76378 114.514 5.16817 114.008C7.02197 113.333 7.86461 112.715 8.10804 111.816C8.35147 111.029 8.20167 110.598 7.58373 110.279C7.00325 109.98 5.6363 109.792 4.90602 109.923ZM3.76378 115.657C3.87613 115.469 4.45661 115.132 5.05582 114.926C6.90962 114.233 8.08932 114.776 9.21283 116.781C9.88694 117.999 9.68096 119.216 8.65107 120.266C7.90206 120.996 7.71481 121.071 5.4865 121.334C4.81239 121.427 4.53151 121.352 4.17573 121.071C3.72633 120.715 3.7076 120.584 3.65143 118.355C3.61398 116.987 3.65143 115.863 3.76378 115.657ZM19.3057 111.703C19.1372 112.041 18.9125 112.528 18.8189 112.79C17.6954 115.432 17.7516 115.788 19.2308 115.788C19.5679 115.788 19.905 115.844 19.9611 115.919C20.036 115.975 20.4293 116.181 20.8599 116.387L21.6464 116.725L21.5528 115.938C21.4966 115.488 21.2719 114.757 21.0472 114.308C20.8412 113.839 20.654 113.333 20.654 113.146C20.654 112.734 19.9237 111.104 19.7364 111.104C19.6615 111.104 19.4556 111.385 19.3057 111.703ZM32.9565 109.474C32.5632 109.792 32.4134 110.092 32.3198 110.86C32.2636 111.385 32.2636 112.041 32.3385 112.303L32.4696 112.809L35.1286 112.753L37.7876 112.696L37.8438 111.666C37.9187 110.336 37.7501 109.418 37.4131 109.418C37.2633 109.418 37.0948 109.324 37.0386 109.23C36.9637 109.118 37.8063 109.043 39.4167 109.043C41.5888 109.062 41.851 109.08 41.4577 109.305C40.5964 109.792 40.5028 110.392 40.5028 115.769C40.5215 121.09 40.5589 121.409 41.4577 121.896C41.851 122.12 41.6075 122.139 39.4916 122.158H37.076L37.4318 121.765C37.7501 121.409 37.7876 120.996 37.8438 117.718C37.8812 115.207 37.8438 113.989 37.694 113.839C37.5629 113.708 36.5517 113.614 35.1099 113.596C33.0688 113.539 32.6943 113.596 32.5071 113.858C32.3385 114.083 32.2636 115.151 32.2636 117.624V121.071L32.8067 121.615L33.3497 122.158H30.9903H28.6309L29.1365 121.633L29.6421 121.109V115.582L29.6421 115.575C29.6234 109.83 29.6231 109.736 28.7995 109.268C28.4999 109.099 28.9493 109.062 30.9529 109.043H33.4808L32.9565 109.474ZM56.1945 109.98C56.4192 109.624 56.6065 109.268 56.6065 109.174C56.6065 109.099 54.4718 109.043 51.8503 109.043H47.0753L46.963 109.923C46.9068 110.429 46.7757 110.973 46.6634 111.141C46.5697 111.329 46.4948 111.703 46.4948 111.984V112.49L47.3 111.722C47.7307 111.31 48.3486 110.841 48.6482 110.673C49.2662 110.336 52.2622 109.736 52.5056 109.905C52.8614 110.111 52.5056 111.291 51.9252 111.853C51.7379 112.041 51.3447 112.696 51.2511 113.015C51.1762 113.202 51.0825 113.352 51.0076 113.352C50.9515 113.352 50.6706 113.746 50.4271 114.233C50.165 114.739 49.9028 115.169 49.8467 115.226C49.7718 115.282 49.5283 115.657 49.2849 116.069C48.4984 117.38 47.7307 118.617 47.0753 119.61C46.7383 120.134 46.2514 120.921 45.9893 121.352L45.5211 122.158H50.3897C54.5842 122.158 55.3144 122.12 55.5579 121.858C55.7264 121.708 55.8575 121.427 55.8575 121.24C55.8575 121.053 55.9136 120.846 55.9698 120.79C56.1196 120.64 56.7937 118.711 56.7188 118.636C56.6814 118.617 56.3631 118.86 56.0073 119.198C55.6515 119.535 54.8463 120.078 54.2096 120.416C53.2547 120.903 52.7678 121.034 51.2885 121.146L49.4909 121.277V120.809C49.4909 120.547 49.8279 119.872 50.2399 119.273C50.6518 118.692 50.9889 118.167 50.9889 118.111C50.9889 118.055 51.1762 117.736 51.4196 117.418C51.6443 117.081 51.9252 116.65 52.0562 116.444C52.6367 115.469 54.5842 112.453 54.865 112.078C55.0523 111.835 55.3332 111.404 55.483 111.141C55.6515 110.86 55.9698 110.336 56.1945 109.98ZM79.3202 109.493L78.7959 109.942L78.7397 115.113C78.7023 118.261 78.7585 120.416 78.8708 120.622C78.9644 120.809 79.3951 121.071 79.8071 121.221C81.1927 121.671 83.2338 120.846 84.6008 119.291C85.4059 118.355 85.4434 118.336 85.4434 118.842C85.4434 119.123 85.3685 119.497 85.2749 119.685C85.1625 119.853 84.9565 120.49 84.7693 121.071L84.451 122.158H79.7509C75.0696 122.158 75.0509 122.139 75.519 121.783L75.9871 121.427L76.0433 115.825L76.0995 110.223L75.6126 109.624L75.107 109.043H77.4851H79.8445L79.3202 109.493ZM113.775 111.591C114.299 112.509 114.355 111.141 113.85 109.642L113.644 109.043H108.569H103.495L103.176 110.073C103.008 110.654 102.858 111.366 102.858 111.685V112.247L103.438 111.591C104.169 110.748 104.918 110.373 106.172 110.242C106.94 110.148 107.165 110.167 107.165 110.373C107.221 112.659 107.127 121.277 107.052 121.483C106.996 121.615 106.678 121.821 106.36 121.933C105.891 122.083 106.397 122.121 108.569 122.121C110.123 122.102 111.191 122.064 110.947 122.027C110.048 121.858 109.992 121.502 109.973 115.825C109.955 112.921 110.011 110.448 110.086 110.336C110.423 109.774 113.269 110.748 113.775 111.591Z" fill="#BF995A"/>
</svg>