<svg width="225" height="70" viewBox="0 0 225 70" fill="none" xmlns="http://www.w3.org/2000/svg">
    <path fill-rule="evenodd" clip-rule="evenodd" d="M30.5678 2.31394L30.5679 2.31409C30.5968 2.37044 30.6175 2.41081 30.6278 2.43144C30.6918 2.53382 30.8454 2.82816 30.9606 3.0841L31.1781 3.53199L30.4743 4.97807L29.7704 6.41133L30.1671 7.20475C30.3847 7.63985 30.615 8.01097 30.6662 8.03656C30.7174 8.06216 30.7686 8.16453 30.7686 8.26691C30.7686 8.40768 32.573 12.042 33.3152 13.3985C33.3722 13.4935 33.4997 13.7507 33.6401 14.0339L33.6402 14.034C33.6889 14.1323 33.7393 14.2338 33.7887 14.3327C34.3774 15.5357 34.4926 15.7404 34.5949 15.7404C34.7613 15.7404 35.35 15.1133 35.6443 14.6399C35.7851 14.3967 35.9642 14.2048 36.0282 14.2048C36.0922 14.2048 36.1434 14.128 36.1434 14.0384C36.1434 13.9616 36.3097 13.7057 36.5017 13.4753C36.6936 13.245 37.052 12.7843 37.2951 12.4644C37.5383 12.1316 37.807 11.7989 37.871 11.7221C37.9478 11.6453 38.2933 11.2102 38.6388 10.7495C38.9843 10.2888 39.3298 9.87934 39.3938 9.82815C39.637 9.66179 39.8161 10.0969 40.2512 11.8117C40.3152 12.0804 40.4176 12.3876 40.4816 12.5155C40.5456 12.6307 40.6479 12.9378 40.7119 13.181C40.9423 13.9872 41.3006 15.1645 41.3902 15.4205C41.5565 15.8684 41.8893 17.0713 41.9277 17.3272C41.9532 17.4552 42.0684 17.6344 42.1964 17.7112C42.4011 17.8263 42.5163 17.7495 43.0154 17.2121C43.6425 16.5338 44.8582 15.1389 45.9331 13.8848L46.2132 13.5652L46.2137 13.5646L46.2137 13.5646L46.214 13.5643L46.2145 13.5638L46.2145 13.5637L46.2153 13.5628L46.2162 13.5618L46.2165 13.5615L46.217 13.5608C46.5118 13.2247 46.8192 12.874 46.9825 12.6819C47.392 12.2212 47.4048 12.2212 47.4048 12.5411C47.4048 12.7331 47.3536 12.925 47.3024 12.989C47.2512 13.0658 47.0977 13.4625 46.9697 13.8848C46.8417 14.3071 46.6882 14.755 46.6242 14.8702C46.5602 14.9982 46.509 15.2157 46.509 15.3693C46.509 15.5101 46.4322 15.7916 46.3298 15.9707C46.2403 16.1627 46.0099 16.8026 45.8308 17.404C45.6516 18.0055 45.2165 19.4004 44.8582 20.5009C44.4999 21.6015 44.2055 22.5868 44.2055 22.6892C44.2055 22.7916 44.116 23.0475 44.0136 23.2395C43.8728 23.5082 43.8216 24.0329 43.8216 25.1846V26.7587L45.0885 28C45.7924 28.6782 48.5309 31.3656 51.1799 33.9762C52.2454 35.0161 53.3129 36.0601 54.2504 36.9768C55.6549 38.3503 56.7673 39.4382 57.1434 39.7989C57.7704 40.4004 58.2823 40.9762 58.2823 41.0658C58.2823 41.1554 53.7521 45.7367 48.2238 51.2395C42.6827 56.7294 37.9734 61.426 37.7558 61.6691C37.5383 61.9123 37.2951 62.1682 37.2183 62.245C37.1595 62.2954 36.3658 63.0807 35.2294 64.205L35.2148 64.2195L35.2079 64.2264L35.204 64.2302L35.1749 64.259C34.5943 64.8334 33.9277 65.4929 33.2256 66.1865C31.1141 68.2852 29.3097 70 29.2202 70C29.1434 70 26.9039 67.8373 24.2549 65.2011C22.8835 63.8297 20.4798 61.4363 17.7469 58.7151L17.7445 58.7127L17.74 58.7082L17.7338 58.7021L17.7307 58.699L17.727 58.6953L17.7091 58.6775L17.7066 58.675L17.6994 58.6678L17.692 58.6604C15.1601 56.1394 12.3506 53.3418 9.81979 50.8172C4.5218 45.5576 0.183594 41.1682 0.183594 41.0658C0.183594 40.9762 0.964215 40.1444 1.8984 39.223C3.71559 37.4826 11.0611 30.2907 13.3262 28.064L14.6443 26.7715V25.2102C14.6443 23.8154 14.6059 23.5082 14.2476 22.4077C14.03 21.7294 13.8125 21.064 13.7485 20.9232C13.6845 20.7824 13.5437 20.3218 13.4158 19.8995C13.3006 19.4771 13.1598 19.0165 13.0958 18.8757C13.0447 18.7349 12.9039 18.2742 12.7759 17.8519C12.6607 17.4296 12.52 16.9945 12.4688 16.8793C12.4048 16.7642 12.3152 16.457 12.2768 16.2011C12.2256 15.9452 12.1361 15.702 12.0721 15.6636C12.0081 15.6252 11.9569 15.4461 11.9569 15.2541C11.9569 15.0622 11.8673 14.7934 11.7649 14.6654C11.6626 14.5247 11.573 14.2559 11.573 14.064C11.573 13.872 11.5218 13.6801 11.4578 13.6417C11.4066 13.6033 11.317 13.3346 11.2659 13.053C11.2275 12.7715 11.1251 12.5411 11.0611 12.5411C10.9843 12.5411 10.9331 12.4132 10.9331 12.2596C10.9331 12.1332 10.9331 12.0662 10.9571 12.0561C10.9841 12.0447 11.0415 12.1053 11.1635 12.234L11.1635 12.234C11.2787 12.362 11.7266 12.8739 12.1361 13.3729C12.5456 13.8592 13.1214 14.5247 13.4158 14.8446C13.7101 15.1645 14.286 15.8172 14.7083 16.3163C15.0009 16.6533 15.3243 17.0271 15.5506 17.2888L15.5513 17.2895L15.7832 17.5576C15.9496 17.7495 16.1671 17.9159 16.2439 17.9159C16.3975 17.9159 16.8198 16.9817 16.8198 16.6618C16.8198 16.5722 17.0501 15.766 17.3317 14.8702C17.5228 14.2886 17.7462 13.5722 17.932 12.9766L17.932 12.9766L17.932 12.9765L17.9324 12.9751C18.0326 12.6539 18.1218 12.3679 18.1891 12.1572C18.3682 11.5558 18.5986 10.8391 18.701 10.5576C18.8033 10.2761 18.8801 10.0329 18.8801 10.0073C18.8289 9.87934 18.8929 9.72578 18.9825 9.72578C19.1105 9.72578 21.6059 12.8611 22.732 14.4223C23.0648 14.883 23.4359 15.3693 23.5511 15.4973C23.7686 15.7404 23.7814 15.7404 24.0757 15.4589C24.2421 15.3053 24.3701 15.0878 24.3701 14.9598C24.3701 14.8446 24.4596 14.6782 24.562 14.5887C24.6644 14.4991 24.754 14.3711 24.754 14.3071C24.754 14.1664 24.9331 13.7952 26.3152 11.1335C27.5309 8.80439 27.9404 7.98537 28.1964 7.4223C28.3116 7.17916 28.4395 6.94881 28.5035 6.93602C28.7467 6.82084 28.5419 6.06581 27.9532 4.92687C27.3262 3.72395 27.1982 3.26326 27.4286 3.17368C27.4926 3.14808 27.9021 2.43144 28.3372 1.56124C28.7723 0.703837 29.1946 0 29.2841 0C29.3609 0 29.6681 0.511885 29.9752 1.12614C30.2101 1.6164 30.4532 2.09035 30.5678 2.31378L30.5678 2.31394ZM23.807 10.0713C23.5766 10.5704 23.4359 10.596 23.1671 10.2121C22.8984 9.82815 22.9112 9.64899 23.2311 9.1883L23.4999 8.81718L23.7558 9.22669C23.999 9.6234 23.999 9.67459 23.807 10.0713ZM35.1836 10.3656C35.4523 10.0713 35.4907 9.44424 35.2476 9.16271C35.03 8.88117 34.9532 8.90676 34.6973 9.34186C34.4798 9.70018 34.4798 9.73857 34.7101 10.1737L34.9405 10.6344L35.1836 10.3656ZM15.4889 12.3108C15.6809 12.6819 15.6809 12.7459 15.4889 13.1426C15.233 13.6673 15.0922 13.6801 14.8234 13.1554C14.6315 12.7843 14.6315 12.7203 14.8234 12.3236C15.0794 11.7989 15.2202 11.7861 15.4889 12.3108ZM43.2458 13.4625C43.4121 13.5905 43.8088 13.0658 43.8216 12.7203C43.8216 12.5667 43.7192 12.3108 43.5913 12.1572L43.3609 11.8629L43.0794 12.2212C42.9258 12.4132 42.7979 12.6307 42.7979 12.6819C42.7979 12.8483 43.0922 13.3473 43.2458 13.4625ZM29.0026 2.32907C28.7339 2.67459 28.4651 3.32724 28.4651 3.64717C28.4651 4.03108 29.041 4.99086 29.2713 4.99086C29.4249 4.99086 30.0008 3.87751 30.0008 3.57038C30.0008 3.31444 29.4249 2.1755 29.2841 2.1755C29.2074 2.1755 29.0794 2.25229 29.0026 2.32907ZM28.6571 8.70201C28.7851 8.38208 28.977 8.06216 29.0794 7.97258C29.3097 7.78062 29.4249 7.84461 29.6553 8.2925C31.3445 11.5302 33.8399 16.585 33.8399 16.7642C33.8399 16.8921 33.7631 17.0841 33.6735 17.1737C33.5456 17.3144 32.5218 18.6581 30.4231 21.4863C30.2951 21.6527 29.988 22.0238 29.732 22.3053L29.2713 22.83L28.913 22.4461C28.7211 22.2413 27.7229 20.9488 26.6991 19.5795C25.6754 18.2102 24.7796 17.0073 24.7156 16.9177C24.626 16.8026 24.69 16.5338 24.9459 15.9963C25.1507 15.574 25.3554 15.2285 25.4194 15.2285C25.4706 15.2285 25.5218 15.1517 25.5218 15.0494C25.5218 14.883 28.1836 9.46983 28.3372 9.34186C28.3755 9.30347 28.5163 9.02194 28.6571 8.70201ZM19.2256 12.2212C19.0977 12.3876 18.9953 12.5923 18.9953 12.6819C18.9953 12.8483 18.6498 14.0896 18.4834 14.5247C18.4194 14.6654 18.2787 15.1261 18.1635 15.5484L18.1061 15.7384C17.9684 16.1944 17.7523 16.9098 17.5748 17.4424C17.3701 18.0695 17.2037 18.7093 17.2037 18.8629C17.2037 19.234 17.4213 19.5155 19.8271 22.2285C20.0702 22.4973 20.3006 22.638 20.403 22.5868C20.6333 22.4973 23.2183 17.2633 23.2183 16.9049C23.2183 16.7642 22.5529 15.766 21.7467 14.691C20.9404 13.6161 20.147 12.5411 19.9935 12.3236C19.6479 11.8245 19.52 11.8117 19.2256 12.2212ZM38.5748 12.3876C38.5748 12.3108 38.6772 12.17 38.8052 12.0804C39.1763 11.7989 39.2659 11.8757 39.5218 12.7075C39.6498 13.1426 39.8801 13.8976 40.0465 14.3967C40.2 14.883 40.4304 15.638 40.5584 16.0603C40.6735 16.4826 40.8271 16.9305 40.8911 17.0457C40.9551 17.1737 41.0063 17.3784 41.0063 17.4936C41.0063 17.6216 41.0958 17.8903 41.1982 18.0951C41.5949 18.8373 41.467 19.0804 39.7266 21.0384L39.7007 21.0672C38.5526 22.3482 38.2841 22.6478 38.1286 22.5976C38.0812 22.5822 38.0443 22.5343 37.9961 22.4718L37.9862 22.4589C37.8838 22.3181 37.4999 21.6271 37.1415 20.9232C36.796 20.2194 36.2202 19.0932 35.8746 18.4278C35.5291 17.7751 35.2476 17.1097 35.2476 16.9817C35.2476 16.841 35.4651 16.457 35.7339 16.1243C35.9898 15.7916 36.2969 15.3821 36.3993 15.2285C36.5017 15.0622 36.732 14.755 36.9112 14.5375C37.0904 14.3199 37.4999 13.7952 37.807 13.3729C38.1269 12.9506 38.4213 12.5795 38.4852 12.5667C38.5364 12.5411 38.5748 12.4644 38.5748 12.3876ZM43.7919 17.8327L43.7916 17.833L43.7913 17.8334L43.7907 17.8341C43.5834 18.0622 43.3799 18.2862 43.2458 18.4278C42.5931 19.1444 42.5291 19.3364 42.7339 19.9122C42.8362 20.181 42.913 20.5137 42.9258 20.6417C42.9258 20.9104 43.2969 21.4991 43.4505 21.4991C43.5145 21.4991 43.6041 21.3455 43.6425 21.1408C43.6936 20.9488 43.7704 20.7313 43.8216 20.6673C43.8728 20.5905 43.9496 20.3601 43.988 20.1554C44.0392 19.8099 44.116 19.5795 44.4615 18.6197C44.5127 18.479 44.6534 18.1335 44.7686 17.8519C44.9222 17.4936 44.9478 17.2377 44.871 17.0329C44.7686 16.7514 44.7558 16.7642 44.2183 17.3656C44.0904 17.5042 43.9402 17.6695 43.7919 17.8327ZM13.9277 18.3638C13.8253 18.159 13.6973 17.7495 13.6589 17.4424C13.6205 17.1097 13.6333 16.8921 13.7101 16.8921C13.8253 16.8921 14.3116 17.3912 15.5401 18.7605C15.9368 19.2084 15.9752 19.6179 15.6553 20.5009C15.4889 20.936 15.3097 21.3455 15.233 21.3967C15.041 21.5247 14.8106 21.2815 14.7339 20.8848C14.6955 20.6929 14.5547 20.2194 14.4011 19.8355C14.2604 19.4516 14.1324 19.042 14.1324 18.9397C14.1324 18.8373 14.0428 18.5814 13.9277 18.3638ZM23.8966 18.0695C23.8198 18.159 23.6278 18.5174 23.4615 18.8757C23.2951 19.2212 23.116 19.5283 23.0648 19.5539C23.0008 19.5795 22.9624 19.6563 22.9624 19.7203C22.9624 19.8995 22.1434 21.5503 22.041 21.6015C21.977 21.6271 21.9386 21.7166 21.9386 21.8062C21.9386 21.883 21.8234 22.1773 21.6827 22.4461C21.5547 22.7276 21.4651 22.9963 21.5035 23.0475C21.5931 23.2139 27.7869 23.1883 27.8893 23.0347C27.9916 22.8684 27.7613 22.4589 27.1982 21.8318C26.9423 21.5375 26.6863 21.2176 26.6096 21.1024C26.5456 20.9872 26.1361 20.4497 25.7138 19.9123C25.5215 19.6617 25.3106 19.3899 25.1198 19.1439L25.1197 19.1439C24.8916 18.8498 24.6922 18.5928 24.5876 18.4534C24.1653 17.9031 24.0757 17.8519 23.8966 18.0695ZM33.1745 19.4644C33.6863 18.7861 34.211 18.1974 34.3262 18.1463C34.4414 18.0951 34.5565 18.0567 34.5565 18.0567C34.5693 18.0439 34.9404 18.7733 35.3883 19.6691C35.8362 20.5777 36.2841 21.3583 36.3737 21.4095C36.4505 21.4607 36.5273 21.6527 36.5273 21.819C36.5273 21.9982 36.5913 22.1389 36.6553 22.1389C36.732 22.1389 36.7832 22.2541 36.7832 22.3821C36.7832 22.5229 36.8472 22.6764 36.9112 22.7148C36.988 22.7532 37.0392 22.8812 37.0392 22.9835C37.0392 23.1371 36.5401 23.1627 33.8527 23.1627C31.9075 23.1627 30.6278 23.1115 30.5766 23.0347C30.5127 22.9196 30.8838 22.3821 31.8947 21.128C32.0867 20.8848 32.6626 20.1426 33.1745 19.4644ZM41.4286 20.5777C40.392 21.6527 39.4066 22.8172 39.4066 22.9452C39.4066 23.1243 42.2476 23.2267 42.5035 23.0603C42.6187 22.9835 42.6059 22.8172 42.4651 22.3309C42.35 21.9726 42.2092 21.5887 42.1452 21.4735C42.0812 21.3455 42.03 21.1152 42.03 20.936C42.03 20.4625 41.7101 20.2706 41.4286 20.5777ZM15.9752 22.9835C15.924 22.8428 16.1927 21.8702 16.5894 20.8208C16.6662 20.6289 16.7686 20.4753 16.8326 20.4753C16.935 20.4753 17.4341 21 18.3298 21.9982C18.4834 22.1773 18.7394 22.4589 18.8801 22.6124C19.0209 22.766 19.1105 22.958 19.0593 23.0347C18.9313 23.2395 16.0648 23.2011 15.9752 22.9835ZM15.7448 24.3912C15.6297 24.6984 15.6553 25.5302 15.7832 25.6581C15.86 25.7349 20.9277 25.7605 29.3225 25.7221L42.7339 25.6581L42.8106 25.0823C42.8746 24.6344 42.8362 24.468 42.6827 24.3528C42.5291 24.2249 39.4834 24.1865 29.1434 24.1993C17.2293 24.1993 15.8088 24.2121 15.7448 24.3912ZM11.509 31.9159C13.5565 29.9068 15.3225 28.2176 15.4377 28.1792C15.6553 28.0896 19.0721 28.128 19.3536 28.2176C19.6607 28.3199 19.4944 28.5247 18.7138 28.9982C18.2659 29.2669 17.8819 29.5101 17.8436 29.5484C17.8052 29.5996 17.562 29.7404 17.3061 29.8812C17.0373 30.0219 16.8198 30.1755 16.8198 30.2267C16.8198 30.2907 16.743 30.3291 16.6406 30.3291C16.5511 30.3291 16.3975 30.4059 16.3207 30.5082C16.2311 30.6106 15.988 30.777 15.7576 30.8921C15.2969 31.1225 14.8746 31.3784 14.7723 31.4808C14.5291 31.7239 13.0702 32.6325 12.9167 32.6325C12.8143 32.6325 12.7247 32.6965 12.7247 32.7605C12.7247 32.8373 12.6224 32.9397 12.5072 32.9781C12.3792 33.0293 12.2256 33.1188 12.1489 33.1828C11.9569 33.3492 9.89657 34.6673 9.87098 34.6417C9.85818 34.6289 9.44868 34.8976 8.97518 35.2431C8.30974 35.7166 8.06659 35.8318 7.95142 35.7166C7.83624 35.6015 8.68085 34.7057 11.509 31.9159ZM25.509 28.2048C25.3043 28.4223 25.381 28.5887 25.8801 28.947C26.1361 29.1389 26.4944 29.4077 26.6735 29.5356C26.7284 29.5788 26.8145 29.6471 26.9207 29.7314C27.1614 29.9224 27.5057 30.1956 27.8253 30.4442C28.286 30.8026 28.7211 31.1481 28.8107 31.2249C28.9002 31.2888 29.0538 31.3528 29.169 31.3528C29.3609 31.3528 32.8545 28.7934 33.0081 28.5247C33.0593 28.4479 33.0465 28.3327 32.9953 28.2815C32.8289 28.1152 25.6626 28.064 25.509 28.2048ZM38.9971 28.3711C39.0227 28.2943 39.1763 28.1792 39.3554 28.1408C39.5218 28.0896 39.7777 28.064 39.9185 28.1024C40.0593 28.128 40.8399 28.1536 41.6461 28.1536H43.1178L46.9569 31.9415C50.0026 34.936 50.7192 35.7038 50.4121 35.6399C50.2074 35.5887 49.849 35.4223 49.6187 35.2431C49.4011 35.0768 49.1452 34.936 49.0684 34.936C48.9916 34.936 48.8637 34.872 48.7741 34.7952C48.5693 34.6289 46.7522 33.4388 45.2933 32.543C44.6662 32.1463 44.1287 31.7751 44.1032 31.7239C44.0776 31.66 43.9752 31.6088 43.8728 31.6088C43.7704 31.6088 43.6936 31.5448 43.6936 31.4808C43.6936 31.404 43.6425 31.3528 43.5657 31.3528C43.4249 31.3528 41.7485 30.3547 41.6461 30.2011C41.6077 30.1627 41.4926 30.0859 41.3902 30.0475C40.8911 29.8684 38.9459 28.5119 38.9971 28.3711ZM22.796 29.2413C22.6809 29.4973 22.5785 29.8044 22.5785 29.9452C22.5785 30.0859 22.4889 30.4058 22.3737 30.6746C22.0666 31.3656 21.7979 32.159 21.1452 34.1682C21.0044 34.6289 20.8381 35.1024 20.7741 35.2175C20.7101 35.3455 20.6589 35.5503 20.6589 35.6654C20.6589 35.7934 20.5693 36.011 20.467 36.1389C20.3646 36.2797 20.275 36.5229 20.275 36.6764C20.275 36.8428 20.2238 36.9963 20.1726 37.0347C20.0447 37.1115 19.6991 38.4936 19.7759 38.5832C19.8271 38.6344 19.9935 38.532 20.8381 37.9817C20.966 37.8921 21.2348 37.6746 21.4395 37.4954C22.0538 36.9452 22.1818 36.8556 22.3225 36.8556C22.3865 36.8556 22.4505 36.8044 22.4505 36.7532C22.4505 36.702 22.6041 36.5612 22.8088 36.4461C23.0008 36.3309 23.2951 36.1005 23.4743 35.9342C23.6534 35.7678 24.2293 35.3199 24.754 34.936C25.8033 34.1682 27.2494 33.0165 27.5949 32.6837C27.9021 32.3894 27.7613 32.223 26.2 31.0329L26.0478 30.9154C25.3437 30.372 24.4948 29.7168 24.1013 29.3949C23.679 29.0622 23.2567 28.7934 23.1671 28.7934C23.0776 28.7934 22.9112 28.9982 22.796 29.2413ZM34.4286 29.3053C34.467 29.3053 34.6461 29.1901 34.8253 29.0494C35.0044 28.9086 35.1964 28.7934 35.2604 28.7934C35.3883 28.7934 35.7723 29.6508 36.0026 30.457C36.0922 30.777 36.2458 31.1865 36.3481 31.3784C36.4505 31.5576 36.5273 31.8007 36.5273 31.9159C36.5273 32.0311 36.5785 32.223 36.6425 32.351C36.7064 32.4662 36.8472 32.8501 36.9624 33.2084C37.2055 34.0018 37.7814 35.6782 37.935 36.0238C37.9862 36.1645 38.1397 36.5996 38.2549 36.9835L38.2549 36.9836C38.3829 37.3675 38.5236 37.7898 38.5876 37.9049C38.9075 38.5448 38.4468 38.7495 37.935 38.1993C37.7686 38.0201 37.5766 37.8793 37.5255 37.8793C37.4231 37.8793 36.2202 36.9452 36.0154 36.7148C35.977 36.6764 35.6059 36.3949 35.1836 36.075C34.8063 35.8006 34.1431 35.2913 33.6136 34.8847L33.6129 34.8842L33.4304 34.7441C32.8929 34.3218 32.0739 33.6819 31.6132 33.3364C31.1525 32.9781 30.743 32.6069 30.7046 32.5046C30.615 32.2998 30.8326 32.0951 32.3043 30.9689C33.1745 30.3035 33.3664 30.1499 34.0702 29.5484C34.2238 29.4205 34.3902 29.3053 34.4286 29.3053ZM20.3774 29.6636C20.3646 29.7148 20.0191 29.958 19.6351 30.2011C19.2512 30.4442 18.9057 30.6746 18.8673 30.713C18.8289 30.7642 18.7138 30.8282 18.6114 30.8793C18.4066 30.9689 18.1123 31.1481 17.5236 31.5448C17.3928 31.6347 17.2359 31.7351 17.1095 31.8159L17.1093 31.8161L17.1092 31.8161L17.1091 31.8162L17.1085 31.8166C17.0375 31.862 16.9763 31.9011 16.935 31.9287C16.8621 31.9692 16.6251 32.1122 16.3313 32.2896L16.3311 32.2897C16.1606 32.3926 15.9711 32.507 15.7832 32.6197C15.2585 32.9269 14.8107 33.2212 14.7723 33.2724C14.7339 33.3236 14.4267 33.5283 14.0684 33.7203C13.7229 33.925 13.1086 34.3218 12.7247 34.6033C12.3408 34.8976 11.8161 35.2303 11.573 35.3583C11.0483 35.6399 9.74301 36.4845 9.65343 36.5996C9.61504 36.6508 9.49986 36.7276 9.39749 36.766C9.29511 36.8172 9.03917 36.9707 8.82162 37.1115C8.61687 37.2395 8.24575 37.457 8.0282 37.5722C7.79785 37.6874 7.6059 37.8282 7.6059 37.8793C7.6059 37.9305 7.50352 38.0073 7.38835 38.0585C7.26038 38.0969 7.04283 38.1993 6.90206 38.2888C6.85415 38.3193 6.75288 38.3854 6.61642 38.4744C6.3519 38.647 5.95513 38.9058 5.55837 39.159C4.45782 39.8757 4.12509 40.17 4.22747 40.3364C4.26586 40.4004 7.22199 40.4388 10.8052 40.4388H17.3317L17.5876 39.9269C17.7284 39.6581 17.8436 39.3382 17.8436 39.2486C17.8436 39.1463 17.9331 38.8903 18.0355 38.6984C18.1379 38.4936 18.2275 38.2249 18.2275 38.1097C18.2275 37.9945 18.2915 37.8537 18.3554 37.8154C18.4322 37.777 18.4834 37.585 18.4834 37.3931C18.4834 37.2011 18.637 36.7532 18.8033 36.4077C18.9825 36.0494 19.1233 35.6271 19.1233 35.4351C19.1233 35.2559 19.1745 35.064 19.2384 34.9872C19.3024 34.9232 19.5328 34.2962 19.7631 33.5923C19.9935 32.8885 20.2238 32.2102 20.2878 32.0951C20.3518 31.9671 20.403 31.7623 20.403 31.6216C20.403 31.4936 20.4926 31.3144 20.5949 31.2249C20.6973 31.1353 20.7869 30.9049 20.7869 30.7002C20.7869 30.5082 20.8509 30.3035 20.9149 30.2651C20.9916 30.2267 21.0428 30.0475 21.0428 29.8684C21.0428 29.6252 20.9788 29.5612 20.7357 29.5612C20.5693 29.5612 20.403 29.5996 20.3774 29.6636ZM37.4871 30.1883C37.3719 29.9835 37.3207 29.7532 37.3591 29.6892C37.4999 29.4589 37.8326 29.5612 38.5876 30.0731C38.9971 30.3547 39.3938 30.585 39.4578 30.585C39.5218 30.585 39.5986 30.6362 39.6242 30.6874C39.6754 30.8154 41.3518 31.8647 41.5053 31.8647C41.5693 31.8647 41.6461 31.9031 41.6717 31.9671C41.7229 32.0951 43.796 33.4004 43.9368 33.4004C44.0008 33.4004 44.0776 33.4516 44.1032 33.5283C44.1287 33.5923 44.6406 33.9506 45.2549 34.3218C46.637 35.1664 50.7448 37.7642 50.924 37.9177C51.2055 38.1609 53.509 39.5558 53.8417 39.6837C54.2256 39.8373 54.3152 40.234 53.9825 40.362C53.8673 40.4004 50.9112 40.4388 47.392 40.4388H41.0063L40.9295 40.1188C40.8911 39.9397 40.8015 39.7989 40.7375 39.7989C40.6735 39.7989 40.6224 39.6965 40.6224 39.5686C40.6224 39.351 40.2896 38.2377 40.1105 37.8793C40.0593 37.7642 39.9697 37.4954 39.9313 37.2651C39.8801 37.0475 39.7777 36.83 39.7138 36.7916C39.6498 36.7404 39.5986 36.5868 39.5986 36.4205C39.5986 36.2669 39.5474 36.0877 39.4962 36.011C39.4322 35.947 39.2787 35.5503 39.1507 35.128C39.0227 34.7057 38.8436 34.181 38.7668 33.9762C38.6772 33.7587 38.4341 33.0676 38.2421 32.4406C38.0501 31.8007 37.8326 31.2377 37.7814 31.1609C37.7302 31.0969 37.679 30.9433 37.679 30.8154C37.679 30.6746 37.5894 30.4058 37.4871 30.1883ZM28.7723 33.6947C28.6955 33.7843 28.4523 33.989 28.222 34.1682L28.0787 34.2795C27.7883 34.5052 27.2764 34.9029 26.8271 35.2559C25.9953 35.9086 24.6388 36.9452 24.1781 37.2651L24.104 37.3242C23.9481 37.4483 23.5916 37.7322 23.2183 38.0329C22.7576 38.4168 22.1818 38.8519 21.9386 39.0311C21.6955 39.1974 21.3883 39.4278 21.2732 39.5302C21.158 39.6453 20.966 39.8117 20.8509 39.9013C20.3134 40.362 20.5693 40.3748 29.1562 40.4132C36.6681 40.4388 37.5638 40.4132 37.6406 40.2468C37.7174 40.0165 37.2183 39.415 36.9496 39.415C36.86 39.415 36.7832 39.3638 36.7832 39.2998C36.7832 39.2486 36.5913 39.0567 36.3481 38.8903C35.4267 38.2249 30.7942 34.6673 29.9496 33.9506C29.4249 33.5155 29.0154 33.426 28.7723 33.6947ZM19.456 42.8446C19.2256 42.3199 19.2 42.0768 19.3664 41.8976C19.4944 41.7824 38.6004 41.7824 38.9203 41.9104C39.0099 41.936 39.0867 42.0896 39.0867 42.2303C39.0867 42.4863 38.3701 44.3547 37.7302 45.7879C37.5639 46.159 37.4231 46.5302 37.4231 46.6197C37.4231 46.7093 37.3719 46.8373 37.3079 46.9141C37.2439 46.9781 37.1287 47.2596 37.0392 47.5411C36.8984 47.989 36.7448 48.3857 36.2713 49.4607C36.2111 49.5932 36.0829 49.9524 35.9613 50.293L35.9386 50.3565C35.8106 50.702 35.6827 51.0219 35.6315 51.0603C35.5931 51.0987 35.4907 51.3547 35.3883 51.6362C35.2348 52.0841 35.0428 52.5704 34.6077 53.5558C34.5437 53.6965 34.3134 54.298 34.0958 54.8994C33.6607 56.0896 33.6351 56.1536 33.1489 57.2413C32.9697 57.6508 32.8161 58.0475 32.8161 58.1371C32.8161 58.2139 32.6626 58.5722 32.4962 58.9305C32.317 59.276 32.1763 59.6344 32.1763 59.7111C32.1763 59.7751 32.0611 60.0823 31.9203 60.3766C31.7796 60.6581 31.6644 60.9653 31.6644 61.042C31.6644 61.106 31.5492 61.3876 31.4085 61.6435C31.2677 61.9122 31.1525 62.1938 31.1525 62.2834C31.1525 62.3857 31.1013 62.5521 31.0373 62.6801C30.9734 62.7952 30.8582 63.064 30.7686 63.2815C30.6943 63.4513 30.5849 63.7178 30.4986 63.9279L30.4487 64.0494C30.3591 64.2541 30.1799 64.7148 30.052 65.0731C29.924 65.4186 29.7448 65.8537 29.6553 66.0329C29.5657 66.2121 29.4889 66.4296 29.4889 66.5192C29.4889 66.7495 29.0922 66.66 28.977 66.4168C28.913 66.3144 28.7723 65.9689 28.6571 65.649C28.6144 65.5424 28.5675 65.4229 28.5206 65.3035C28.4267 65.0646 28.3329 64.8257 28.2732 64.6892L28.2233 64.5678L28.2228 64.5667C28.1366 64.3568 28.0274 64.0909 27.9532 63.9214C27.8637 63.7038 27.7485 63.4351 27.6845 63.3199C27.6205 63.192 27.5693 63.0256 27.5693 62.9616C27.5693 62.8848 27.4542 62.5521 27.3006 62.2194C27.0447 61.6307 26.9679 61.4388 26.7119 60.7861C26.6735 60.6965 26.6255 60.5813 26.5775 60.4661L26.5775 60.466C26.5295 60.3509 26.4816 60.2358 26.4432 60.1462C26.3664 59.9671 26.1745 59.5064 26.0337 59.1225C25.8929 58.7386 25.701 58.2779 25.6242 58.0987C25.5474 57.9196 25.445 57.6636 25.3938 57.5229C25.3426 57.3821 25.2403 57.1261 25.1635 56.947C24.7668 56.0128 24.2421 54.6947 24.2421 54.6179C24.2421 54.5667 24.1013 54.2212 23.935 53.8501C23.7686 53.479 23.5383 52.9159 23.4103 52.596C23.2823 52.276 23.052 51.713 22.8856 51.3419C22.7192 50.9707 22.5785 50.6124 22.5785 50.5484C22.5785 50.4461 22.2585 49.6399 21.7467 48.4369C21.6571 48.2194 21.5291 47.9122 21.4523 47.7331C21.4066 47.6051 21.3152 47.3921 21.2293 47.1923L21.2292 47.1919L21.229 47.1916C21.1948 47.112 21.1616 47.0345 21.1324 46.9653C21.0731 46.8245 20.971 46.5594 20.8582 46.2667L20.8581 46.2664C20.7761 46.0536 20.6885 45.8262 20.6077 45.6216C20.499 45.3388 20.3738 45.0315 20.2718 44.7809L20.2717 44.7806C20.1936 44.589 20.1291 44.4306 20.0958 44.3419C20.0409 44.2084 19.9667 44.0412 19.8998 43.8906L19.8995 43.89L19.8995 43.8899C19.8575 43.7953 19.8183 43.7071 19.7887 43.638C19.7392 43.4995 19.6362 43.2615 19.5388 43.0365L19.5383 43.0353C19.5099 42.9697 19.482 42.9052 19.456 42.8446ZM47.9423 41.8464L40.9935 41.9104L40.8143 42.2303C40.7247 42.4095 40.5456 42.8062 40.4304 43.1261C40.3024 43.4461 40.0721 44.0091 39.9057 44.3803C39.7394 44.7514 39.5986 45.1097 39.5986 45.1737C39.5986 45.2505 39.5474 45.404 39.4834 45.532C39.2659 45.9543 38.5748 47.6435 38.5748 47.7459C38.5748 47.8099 38.4596 48.1426 38.3061 48.4753C37.7814 49.6654 37.7046 49.8574 37.4871 50.4205C37.052 51.5338 36.6681 52.4424 36.5145 52.7495C36.4505 52.8775 36.3993 53.0439 36.3993 53.1207C36.3993 53.2742 36.1178 53.9653 35.8106 54.5539C35.7083 54.7587 35.6315 55.0274 35.6315 55.1554C35.6315 55.2834 35.5803 55.4241 35.5163 55.4625C35.4523 55.5009 35.3628 55.6801 35.3244 55.8592C35.2732 56.0384 35.1068 56.4863 34.9404 56.8574C34.7794 57.2043 34.4503 58.0192 34.1857 58.6746L34.1856 58.6747L34.1598 58.7386C33.9039 59.404 33.6096 60.1207 33.52 60.3382C33.4176 60.543 33.2128 61.0676 33.0593 61.4899C32.9057 61.9123 32.7138 62.4241 32.6242 62.6417C32.5645 62.7782 32.4706 63.0171 32.3768 63.2559C32.3298 63.3754 32.2829 63.4948 32.2403 63.6015C32.1695 63.798 32.0843 64.0138 32.0172 64.1837C31.9751 64.2904 31.9401 64.379 31.9203 64.4333C31.7156 64.9452 31.69 65.2651 31.8564 65.2651C32.0611 65.2651 55.211 42.3071 55.211 42.0896C55.211 42.0512 55.1342 41.9616 55.0574 41.8976C54.9679 41.8336 51.807 41.808 47.9423 41.8464ZM23.0904 61.9634C7.10681 46.0695 3.24209 42.192 3.30608 42.0256C3.37007 41.872 4.50901 41.8464 10.3317 41.8464C16.1392 41.8464 17.3102 41.772 17.7139 42.2925C17.8652 42.4878 17.9087 42.7667 18.0483 43.1645C18.4962 44.4186 18.8801 45.3528 19.0081 45.4808C19.0721 45.5576 19.1233 45.7367 19.1233 45.8903C19.1233 46.0567 19.1745 46.2102 19.2384 46.2486C19.2896 46.287 19.4432 46.5942 19.5584 46.9269C19.9807 48.0786 20.4414 49.2431 20.966 50.4461C21.0684 50.6764 21.2988 51.2651 21.4779 51.7514C21.6699 52.2377 21.8618 52.6984 21.913 52.7751C21.9642 52.8519 22.0922 53.1463 22.1818 53.4278C22.2713 53.7093 22.4249 54.106 22.5145 54.3236C22.7704 54.9123 24.7668 59.9031 24.9203 60.3382C24.9843 60.543 25.1251 60.8885 25.2147 61.106C25.3132 61.3495 25.4144 61.5957 25.5123 61.8337C25.6304 62.1211 25.7437 62.3967 25.8417 62.6417C25.916 62.8114 26.0254 63.0778 26.1117 63.2879C26.1295 63.3313 26.1463 63.3723 26.1617 63.4095C26.1855 63.4641 26.2112 63.5241 26.2372 63.5849C26.309 63.7525 26.3835 63.9265 26.4304 64.011C26.4944 64.1389 26.5968 64.4589 26.6607 64.7532C26.7503 65.1627 26.7375 65.2651 26.5968 65.2651C26.4944 65.2651 24.9203 63.7806 23.0904 61.9634Z" fill="#BF995A"/>
    <path fill-rule="evenodd" clip-rule="evenodd" d="M188.581 28.5551C192.107 30.2762 193.639 35.1665 191.792 38.7975C191.016 40.3297 189.945 41.4001 188.413 42.1977C187.343 42.7434 187.091 42.7853 184.635 42.7853C182.368 42.7853 181.886 42.7224 181.067 42.3236C178.401 41.0643 176.659 38.2308 176.659 35.1665C176.659 34.0331 177.478 31.5984 178.129 30.7589C178.737 29.9823 180.185 28.8489 181.067 28.4502C183.103 27.5267 186.587 27.5686 188.581 28.5551ZM156.573 28.5761C158.106 29.3527 159.302 30.612 159.911 32.0812C160.561 33.6973 160.75 35.1875 160.477 36.6357C160.351 37.3703 160.162 38.0419 160.078 38.1679C159.994 38.2728 159.848 38.6086 159.764 38.8815C159.47 39.8679 158.001 41.3161 156.426 42.1767C155.419 42.7434 155.209 42.7853 152.711 42.7853C150.088 42.7853 149.92 42.7644 148.22 41.8828C145.827 40.6865 144.253 37.1394 144.778 34.18C144.904 33.4874 145.135 32.6479 145.303 32.333C145.47 31.9972 145.596 31.6194 145.596 31.4725C145.596 31.0737 147.716 29.1218 148.745 28.5971C150.025 27.9045 150.802 27.7995 153.278 27.9045C155.083 27.9674 155.566 28.0724 156.573 28.5761ZM224.681 35.2924C224.513 32.2491 222.897 29.6045 220.462 28.4292C219.749 28.0724 219.035 27.9464 217.461 27.9045C214.733 27.7995 213.935 27.9045 213.033 28.5341C212.613 28.807 212.151 29.0378 212.004 29.0378C211.647 29.0378 209.884 31.0737 209.506 31.9762C209.46 32.0753 209.41 32.1808 209.361 32.2864L209.359 32.2888L209.359 32.29C209.21 32.6083 209.06 32.9262 208.982 33.0676C208.856 33.2775 208.772 34.243 208.772 35.2085C208.772 36.7826 208.856 37.1604 209.485 38.5457C210.325 40.3717 211.249 41.4211 212.802 42.1977C213.851 42.7434 214.082 42.7853 216.811 42.7853C218.532 42.7853 219.77 42.7014 219.854 42.5755C219.938 42.4495 220.379 42.1767 220.819 41.9458C221.659 41.526 223.674 39.6161 223.674 39.2593C223.674 39.1333 223.926 38.5457 224.219 37.937C224.702 36.9715 224.765 36.5937 224.681 35.2924ZM90.0397 28.3452C90.9422 28.807 91.215 29.2057 91.236 30.0873C91.236 31.0527 90.8372 31.5775 89.6199 32.3121C89.0532 32.6269 88.4865 33.0257 88.3396 33.1726C88.0248 33.4664 88.1717 33.8652 88.5915 33.8652C89.0952 33.8652 90.9212 34.9566 91.5089 35.6073C92.8521 37.1184 93.104 38.9234 92.1805 40.3297C91.5508 41.2742 90.8792 41.6939 89.1162 42.2606C87.9618 42.6174 87.1852 42.6804 83.3863 42.6804H78.9997L79.5664 42.2396L80.1121 41.8199V35.4184V29.0169L79.5664 28.5131L78.9997 27.9884H84.1839C88.5915 27.9884 89.473 28.0304 90.0397 28.3452ZM105.403 33.5504C104.228 30.633 103.829 28.828 104.249 28.3032C104.48 28.0304 104.186 27.9884 101.919 27.9884C99.9043 27.9884 99.4006 28.0514 99.5895 28.2403C100.009 28.66 99.8833 29.5416 99.1067 31.3466C98.7079 32.2911 98.3721 33.1516 98.3721 33.2775C98.3721 33.3825 98.2252 33.8232 98.0363 34.243C97.3647 35.7962 96.735 37.3493 96.3782 38.2728C96.1893 38.7975 95.9375 39.3852 95.8325 39.5741C95.7276 39.784 95.6436 40.1408 95.6436 40.3717C95.6436 40.6025 95.5597 40.7914 95.4337 40.7914C95.3288 40.7914 95.2238 40.9174 95.2238 41.0853C95.2238 41.2532 94.888 41.6729 94.4892 42.0298L93.7337 42.6804H95.8745H98.0153L97.4276 42.2396C96.9029 41.8199 96.8819 41.6939 97.0079 40.8124C97.0918 40.2877 97.2178 39.742 97.3017 39.6371C97.3857 39.5111 97.6375 38.8605 97.8474 38.1679C98.4141 36.3838 98.666 36.153 99.7154 36.2999C101.017 36.5098 103.053 37.5382 103.766 38.3568C104.921 39.658 105.151 41.3791 104.312 42.3026C103.997 42.6594 104.081 42.6804 106.663 42.6804H109.37L108.824 42.0927C108.531 41.7779 108.027 40.8124 107.712 39.9519C107.397 39.0914 107.019 38.0839 106.851 37.7481C106.705 37.3913 106.39 36.4468 106.138 35.6492L106.138 35.6491C105.865 34.8306 105.55 33.8862 105.403 33.5504ZM182.893 29.3317C180.962 29.9403 179.913 31.9762 179.976 35.0616C179.997 36.6147 180.102 36.9715 180.794 38.3987C181.634 40.0988 182.977 41.4211 183.879 41.4211C184.131 41.4211 184.446 41.526 184.572 41.652C184.992 42.0717 187.469 41.0853 188.161 40.2457C189.735 38.3358 189.861 34.7677 188.455 31.9133C188.014 31.0318 187.049 29.8774 186.755 29.8774C186.629 29.8774 186.524 29.7934 186.524 29.6885C186.524 29.4786 184.677 29.0169 184.047 29.0588C183.858 29.0798 183.334 29.1848 182.893 29.3317ZM148.409 31.7034C148.955 30.507 149.92 29.5626 150.99 29.2477C152.187 28.8909 153.782 29.1008 154.516 29.7095C156.489 31.3466 157.35 33.2775 157.35 36.048C157.35 38.3148 156.867 39.5741 155.587 40.6655C154.663 41.4631 154.537 41.505 153.194 41.505C150.885 41.526 149.794 40.7075 148.598 38.1049C147.989 36.7406 147.905 36.3628 147.905 34.7257C147.905 33.2146 148.01 32.6479 148.409 31.7034ZM214.964 29.2897C213.998 29.6255 212.991 30.4651 212.844 31.0318C212.781 31.3256 212.655 31.5565 212.571 31.5565C212.361 31.5565 211.92 33.6553 211.92 34.6838C211.92 35.9431 212.382 37.5382 213.242 39.3012C213.641 40.0988 215.194 41.2952 216.181 41.526C218.343 42.0717 220.651 40.5606 221.218 38.1888C221.449 37.2024 221.47 35.1665 221.26 34.0121C220.987 32.5219 219.329 29.8774 218.699 29.8774C218.553 29.8774 218.427 29.7934 218.427 29.6885C218.427 29.4786 216.79 29.0378 216.076 29.0588C215.803 29.0588 215.32 29.1638 214.964 29.2897ZM83.0925 31.6614C83.1554 29.7305 83.4703 29.1428 84.4987 28.9749C85.3172 28.828 86.8494 29.0378 87.5001 29.3737C88.1927 29.7305 88.3606 30.2132 88.0877 31.0947C87.8149 32.1022 86.8704 32.7948 84.7925 33.5504C83.2184 34.1171 83.0295 33.8862 83.0925 31.6614ZM84.6666 34.5788C83.995 34.8097 83.3443 35.1875 83.2184 35.3974C83.0925 35.6282 83.0505 36.8876 83.0925 38.4197C83.1554 40.9174 83.1764 41.0643 83.6801 41.4631C84.0789 41.7779 84.3938 41.8618 85.1493 41.7569C87.647 41.4631 87.8569 41.3791 88.6964 40.5606C89.8508 39.3852 90.0816 38.0209 89.3261 36.6567C88.0667 34.4109 86.7445 33.8022 84.6666 34.5788ZM100.093 32.1861C100.198 31.8923 100.45 31.3466 100.639 30.9688C100.807 30.612 101.038 30.2972 101.122 30.2972C101.332 30.2972 102.15 32.1232 102.15 32.5849C102.15 32.7948 102.36 33.3615 102.591 33.8862C102.843 34.3899 103.095 35.2085 103.158 35.7122L103.262 36.5937L102.381 36.2159C101.898 35.985 101.457 35.7542 101.373 35.6912C101.311 35.6073 100.933 35.5443 100.555 35.5443C98.8968 35.5443 98.8339 35.1455 100.093 32.1861ZM115.94 28.4712C115.499 28.828 115.331 29.1638 115.226 30.0243C115.163 30.612 115.163 31.3466 115.247 31.6404L115.394 32.2071L118.374 32.1441L121.355 32.0812L121.418 30.9268C121.502 29.4366 121.313 28.4082 120.935 28.4082C120.767 28.4082 120.578 28.3032 120.515 28.1983C120.431 28.0724 121.376 27.9884 123.181 27.9884C125.615 28.0094 125.909 28.0304 125.468 28.2823C124.503 28.828 124.398 29.4996 124.398 35.5233C124.419 41.484 124.461 41.8409 125.468 42.3866C125.909 42.6384 125.636 42.6594 123.265 42.6804H120.557L120.956 42.2396C121.313 41.8409 121.355 41.3791 121.418 37.7061C121.46 34.8936 121.418 33.5294 121.25 33.3615C121.103 33.2146 119.969 33.1096 118.353 33.0886C116.065 33.0257 115.646 33.0886 115.436 33.3825C115.247 33.6343 115.163 34.8307 115.163 37.6012V41.4631L115.772 42.0717L116.38 42.6804H113.736H111.091L111.658 42.0927L112.225 41.505V35.3134L112.225 35.3063C112.204 28.8699 112.203 28.7648 111.28 28.2403C110.944 28.0514 111.448 28.0094 113.694 27.9884H116.527L115.94 28.4712ZM141.986 29.0378C142.238 28.6391 142.448 28.2403 142.448 28.1353C142.448 28.0514 140.055 27.9884 137.117 27.9884H131.765L131.639 28.9749C131.576 29.5416 131.429 30.1502 131.303 30.3391C131.198 30.549 131.114 30.9688 131.114 31.2836V31.8503L132.017 30.9898C132.5 30.528 133.192 30.0033 133.528 29.8144C134.221 29.4366 137.579 28.765 137.852 28.9539C138.25 29.1848 137.852 30.507 137.201 31.1367C136.991 31.3466 136.55 32.0812 136.445 32.438C136.361 32.6479 136.256 32.8158 136.172 32.8158C136.11 32.8158 135.795 33.2565 135.522 33.8022C135.228 34.3689 134.934 34.8517 134.871 34.9146C134.787 34.9776 134.514 35.3974 134.242 35.8591C133.36 37.3283 132.5 38.7136 131.765 39.826C131.387 40.4136 130.841 41.2952 130.548 41.7779L130.023 42.6804H135.48C140.181 42.6804 141 42.6384 141.273 42.3446C141.462 42.1767 141.609 41.8618 141.609 41.652C141.609 41.4421 141.671 41.2112 141.734 41.1482C141.902 40.9803 142.658 38.8185 142.574 38.7346C142.532 38.7136 142.175 38.9864 141.776 39.3642C141.378 39.742 140.475 40.3507 139.762 40.7285C138.691 41.2742 138.145 41.4211 136.487 41.547L134.472 41.6939V41.1692C134.472 40.8754 134.85 40.1198 135.312 39.4482C135.774 38.7975 136.152 38.2098 136.152 38.1469C136.152 38.0839 136.361 37.7271 136.634 37.3703C136.886 36.9925 137.201 36.5098 137.348 36.2789C137.999 35.1875 140.181 31.8083 140.496 31.3886C140.706 31.1157 141.021 30.633 141.189 30.3391C141.378 30.0243 141.734 29.4366 141.986 29.0378ZM167.907 28.4921L167.32 28.9959L167.257 34.7887C167.215 38.3148 167.278 40.7285 167.403 40.9593C167.508 41.1692 167.991 41.4631 168.453 41.631C170.006 42.1347 172.294 41.2112 173.826 39.4691C174.728 38.4197 174.77 38.3987 174.77 38.9654C174.77 39.2803 174.686 39.7 174.582 39.9099C174.456 40.0988 174.225 40.8124 174.015 41.4631L173.658 42.6804H168.39C163.143 42.6804 163.122 42.6594 163.647 42.2606L164.171 41.8618L164.234 35.5863L164.297 29.3107L163.751 28.6391L163.185 27.9884H165.85H168.495L167.907 28.4921ZM206.526 30.8429C207.114 31.8713 207.177 30.3391 206.61 28.66L206.379 27.9884H200.691H195.003L194.647 29.1428C194.458 29.7934 194.29 30.591 194.29 30.9478V31.5775L194.94 30.8429C195.759 29.8984 196.599 29.4786 198.005 29.3317C198.865 29.2267 199.117 29.2477 199.117 29.4786C199.18 32.0392 199.075 41.6939 198.991 41.9248C198.928 42.0717 198.571 42.3026 198.215 42.4285C197.69 42.5964 198.257 42.6384 200.691 42.6384C202.433 42.6174 203.63 42.5755 203.357 42.5335C202.349 42.3446 202.286 41.9458 202.265 35.5863C202.244 32.333 202.307 29.5626 202.391 29.4366C202.769 28.807 205.959 29.8984 206.526 30.8429Z" fill="#BF995A"/>
</svg>