<svg width="36" height="36" xmlns="http://www.w3.org/2000/svg" xmlns:svg="http://www.w3.org/2000/svg">
    <circle cx="18" cy="18" fill="none" id="svg_1" r="17" stroke="#BF995A"/>
    <path d="m9.19,26.24l1.65,-3.8c-2.61,-3.71 -2.06,-8.78 1.29,-11.83c3.36,-3.06 8.46,-3.14 11.91,-0.2c3.45,2.94 4.17,7.99 1.68,11.78c-2.49,3.8 -7.41,5.14 -11.48,3.15l-5.05,0.9" fill="none" id="svg_2" stroke="#BF995A" stroke-linecap="round" stroke-linejoin="round" stroke-width="1.5" transform="matrix(1, 0, 0, 1, 0, 0)"/>
    <path d="m15.67,15c0,0.28 0.22,0.5 0.5,0.5c0.28,0 0.5,-0.22 0.5,-0.5l0,-1c0,-0.28 -0.22,-0.5 -0.5,-0.5c-0.28,0 -0.5,0.22 -0.5,0.5l0,1c0,2.76 2.24,5 5,5l1,0c0.28,0 0.5,-0.22 0.5,-0.5c0,-0.28 -0.22,-0.5 -0.5,-0.5l-1,0c-0.28,0 -0.5,0.22 -0.5,0.5c0,0.28 0.22,0.5 0.5,0.5" fill="none" id="svg_3" stroke="#BF995A" stroke-linecap="round" stroke-linejoin="round" stroke-width="1.5" transform="matrix(1, 0, 0, 1, 0, 0)"/>
</svg>